<mxfile host="app.diagrams.net" agent="Mozilla/5.0 (Macintosh; Intel Mac OS X 10_15_7) AppleWebKit/537.36 (KHTML, like Gecko) Chrome/133.0.0.0 Safari/537.36" version="26.1.1">
  <diagram name="Page-1" id="e7e014a7-5840-1c2e-5031-d8a46d1fe8dd">
    <mxGraphModel dx="954" dy="581" grid="1" gridSize="10" guides="1" tooltips="1" connect="1" arrows="1" fold="1" page="1" pageScale="1" pageWidth="1654" pageHeight="1169" background="none" math="0" shadow="0">
      <root>
        <mxCell id="0" />
        <mxCell id="1" parent="0" />
        <mxCell id="QrdZ3zOz95iLeTfScC8g-41" value="Calendrier" style="swimlane;horizontal=0;whiteSpace=wrap;html=1;verticalAlign=middle;" parent="1" vertex="1">
          <mxGeometry x="50" y="130" width="1410" height="180" as="geometry" />
        </mxCell>
        <mxCell id="QrdZ3zOz95iLeTfScC8g-42" value="" style="ellipse;html=1;shape=startState;fillColor=#000000;strokeColor=#ff0000;" parent="QrdZ3zOz95iLeTfScC8g-41" vertex="1">
          <mxGeometry x="30" y="70" width="30" height="30" as="geometry" />
        </mxCell>
        <mxCell id="QrdZ3zOz95iLeTfScC8g-43" value="" style="edgeStyle=orthogonalEdgeStyle;html=1;verticalAlign=bottom;endArrow=open;endSize=8;strokeColor=#ff0000;rounded=0;entryX=0;entryY=0.5;entryDx=0;entryDy=0;" parent="QrdZ3zOz95iLeTfScC8g-41" source="QrdZ3zOz95iLeTfScC8g-42" target="QrdZ3zOz95iLeTfScC8g-55" edge="1">
          <mxGeometry relative="1" as="geometry">
            <mxPoint x="120" y="85" as="targetPoint" />
          </mxGeometry>
        </mxCell>
        <mxCell id="QrdZ3zOz95iLeTfScC8g-56" value="" style="edgeStyle=orthogonalEdgeStyle;rounded=0;orthogonalLoop=1;jettySize=auto;html=1;startArrow=open;startFill=0;endArrow=none;exitX=0;exitY=0.5;exitDx=0;exitDy=0;" parent="QrdZ3zOz95iLeTfScC8g-41" source="QrdZ3zOz95iLeTfScC8g-44" target="QrdZ3zOz95iLeTfScC8g-55" edge="1">
          <mxGeometry relative="1" as="geometry" />
        </mxCell>
        <mxCell id="QrdZ3zOz95iLeTfScC8g-79" style="edgeStyle=orthogonalEdgeStyle;rounded=0;orthogonalLoop=1;jettySize=auto;html=1;entryX=0.5;entryY=1;entryDx=0;entryDy=0;exitX=1;exitY=0.5;exitDx=0;exitDy=0;" parent="QrdZ3zOz95iLeTfScC8g-41" source="QrdZ3zOz95iLeTfScC8g-44" target="QrdZ3zOz95iLeTfScC8g-45" edge="1">
          <mxGeometry relative="1" as="geometry" />
        </mxCell>
        <mxCell id="QrdZ3zOz95iLeTfScC8g-44" value="Mi-Avril&lt;br&gt;Vérification avec IDIP" style="html=1;whiteSpace=wrap;" parent="QrdZ3zOz95iLeTfScC8g-41" vertex="1">
          <mxGeometry x="180" y="120" width="110" height="50" as="geometry" />
        </mxCell>
        <mxCell id="QrdZ3zOz95iLeTfScC8g-48" value="" style="edgeStyle=orthogonalEdgeStyle;rounded=0;orthogonalLoop=1;jettySize=auto;html=1;" parent="QrdZ3zOz95iLeTfScC8g-41" source="QrdZ3zOz95iLeTfScC8g-45" target="QrdZ3zOz95iLeTfScC8g-47" edge="1">
          <mxGeometry relative="1" as="geometry" />
        </mxCell>
        <mxCell id="QrdZ3zOz95iLeTfScC8g-45" value="Adaptation du cours" style="html=1;whiteSpace=wrap;" parent="QrdZ3zOz95iLeTfScC8g-41" vertex="1">
          <mxGeometry x="260" y="60" width="110" height="50" as="geometry" />
        </mxCell>
        <mxCell id="QrdZ3zOz95iLeTfScC8g-50" value="" style="edgeStyle=orthogonalEdgeStyle;rounded=0;orthogonalLoop=1;jettySize=auto;html=1;" parent="QrdZ3zOz95iLeTfScC8g-41" source="QrdZ3zOz95iLeTfScC8g-47" target="QrdZ3zOz95iLeTfScC8g-49" edge="1">
          <mxGeometry relative="1" as="geometry" />
        </mxCell>
        <mxCell id="QrdZ3zOz95iLeTfScC8g-47" value="29 Avril&lt;br&gt;Séance #1&lt;br&gt;3h" style="html=1;whiteSpace=wrap;" parent="QrdZ3zOz95iLeTfScC8g-41" vertex="1">
          <mxGeometry x="450" y="60" width="110" height="50" as="geometry" />
        </mxCell>
        <mxCell id="QrdZ3zOz95iLeTfScC8g-52" value="" style="edgeStyle=orthogonalEdgeStyle;rounded=0;orthogonalLoop=1;jettySize=auto;html=1;" parent="QrdZ3zOz95iLeTfScC8g-41" source="QrdZ3zOz95iLeTfScC8g-49" target="QrdZ3zOz95iLeTfScC8g-51" edge="1">
          <mxGeometry relative="1" as="geometry" />
        </mxCell>
        <mxCell id="QrdZ3zOz95iLeTfScC8g-49" value="30 avril&lt;br&gt;Séance #2&lt;br&gt;3h30" style="html=1;whiteSpace=wrap;" parent="QrdZ3zOz95iLeTfScC8g-41" vertex="1">
          <mxGeometry x="700" y="60" width="110" height="50" as="geometry" />
        </mxCell>
        <mxCell id="QrdZ3zOz95iLeTfScC8g-54" style="edgeStyle=orthogonalEdgeStyle;rounded=0;orthogonalLoop=1;jettySize=auto;html=1;entryX=0;entryY=0.5;entryDx=0;entryDy=0;" parent="QrdZ3zOz95iLeTfScC8g-41" source="QrdZ3zOz95iLeTfScC8g-51" target="QrdZ3zOz95iLeTfScC8g-53" edge="1">
          <mxGeometry relative="1" as="geometry" />
        </mxCell>
        <mxCell id="QrdZ3zOz95iLeTfScC8g-51" value="19 mai&lt;br&gt;Séance #3&lt;br&gt;3h30" style="html=1;whiteSpace=wrap;" parent="QrdZ3zOz95iLeTfScC8g-41" vertex="1">
          <mxGeometry x="940" y="60" width="110" height="50" as="geometry" />
        </mxCell>
        <mxCell id="QrdZ3zOz95iLeTfScC8g-53" value="" style="ellipse;html=1;shape=endState;fillColor=#000000;strokeColor=#ff0000;" parent="QrdZ3zOz95iLeTfScC8g-41" vertex="1">
          <mxGeometry x="1260" y="70" width="30" height="30" as="geometry" />
        </mxCell>
        <mxCell id="QrdZ3zOz95iLeTfScC8g-55" value="&lt;div&gt;21 mars&lt;/div&gt;Reprise du contenu" style="html=1;whiteSpace=wrap;" parent="QrdZ3zOz95iLeTfScC8g-41" vertex="1">
          <mxGeometry x="105" y="60" width="110" height="50" as="geometry" />
        </mxCell>
        <mxCell id="QrdZ3zOz95iLeTfScC8g-64" value="4 juin&lt;br&gt;Examen sur table" style="shape=callout;whiteSpace=wrap;html=1;perimeter=calloutPerimeter;size=30;position=0.56;" parent="QrdZ3zOz95iLeTfScC8g-41" vertex="1">
          <mxGeometry x="1230" y="10" width="90" height="70" as="geometry" />
        </mxCell>
        <mxCell id="QrdZ3zOz95iLeTfScC8g-62" style="edgeStyle=orthogonalEdgeStyle;rounded=0;orthogonalLoop=1;jettySize=auto;html=1;entryX=0.5;entryY=0;entryDx=0;entryDy=0;" parent="1" source="QrdZ3zOz95iLeTfScC8g-58" target="QrdZ3zOz95iLeTfScC8g-55" edge="1">
          <mxGeometry relative="1" as="geometry" />
        </mxCell>
        <mxCell id="QrdZ3zOz95iLeTfScC8g-63" value="Coordination &lt;br&gt;contenu" style="edgeLabel;html=1;align=center;verticalAlign=middle;resizable=0;points=[];" parent="QrdZ3zOz95iLeTfScC8g-62" vertex="1" connectable="0">
          <mxGeometry x="0.0424" relative="1" as="geometry">
            <mxPoint as="offset" />
          </mxGeometry>
        </mxCell>
        <mxCell id="QrdZ3zOz95iLeTfScC8g-58" value="Imad" style="shape=umlActor;verticalLabelPosition=bottom;verticalAlign=top;html=1;" parent="1" vertex="1">
          <mxGeometry x="200" y="60" width="20" height="40" as="geometry" />
        </mxCell>
        <mxCell id="QrdZ3zOz95iLeTfScC8g-74" style="edgeStyle=orthogonalEdgeStyle;rounded=0;orthogonalLoop=1;jettySize=auto;html=1;" parent="1" source="QrdZ3zOz95iLeTfScC8g-49" target="QrdZ3zOz95iLeTfScC8g-69" edge="1">
          <mxGeometry relative="1" as="geometry" />
        </mxCell>
        <mxCell id="QrdZ3zOz95iLeTfScC8g-75" style="edgeStyle=orthogonalEdgeStyle;rounded=0;orthogonalLoop=1;jettySize=auto;html=1;entryX=0.5;entryY=0;entryDx=0;entryDy=0;" parent="1" source="QrdZ3zOz95iLeTfScC8g-47" target="QrdZ3zOz95iLeTfScC8g-67" edge="1">
          <mxGeometry relative="1" as="geometry" />
        </mxCell>
        <mxCell id="QrdZ3zOz95iLeTfScC8g-76" style="edgeStyle=orthogonalEdgeStyle;rounded=0;orthogonalLoop=1;jettySize=auto;html=1;entryX=0.5;entryY=0;entryDx=0;entryDy=0;" parent="1" source="QrdZ3zOz95iLeTfScC8g-51" target="QrdZ3zOz95iLeTfScC8g-71" edge="1">
          <mxGeometry relative="1" as="geometry" />
        </mxCell>
        <mxCell id="QrdZ3zOz95iLeTfScC8g-78" style="edgeStyle=orthogonalEdgeStyle;rounded=0;orthogonalLoop=1;jettySize=auto;html=1;exitX=0.5;exitY=1;exitDx=0;exitDy=0;entryX=0.5;entryY=0;entryDx=0;entryDy=0;" parent="1" source="QrdZ3zOz95iLeTfScC8g-53" target="QrdZ3zOz95iLeTfScC8g-77" edge="1">
          <mxGeometry relative="1" as="geometry" />
        </mxCell>
        <mxCell id="QrdZ3zOz95iLeTfScC8g-65" value="Objectifs pédagogiques" style="swimlane;horizontal=0;whiteSpace=wrap;html=1;perimeterSpacing=1;" parent="1" vertex="1">
          <mxGeometry x="50" y="310" width="1410" height="190" as="geometry" />
        </mxCell>
        <mxCell id="QrdZ3zOz95iLeTfScC8g-67" value="A la fin de cette séance, les étudiants ont une compréhension globale des enjeux de l&#39;IA et de ses différentes composantes, notamment les enjeux géopolitiques et culturels" style="html=1;whiteSpace=wrap;movableLabel=0;" parent="QrdZ3zOz95iLeTfScC8g-65" vertex="1">
          <mxGeometry x="420" y="40" width="170" height="100" as="geometry" />
        </mxCell>
        <mxCell id="QrdZ3zOz95iLeTfScC8g-69" value="A la fin de cette séance, les étudiants savent identifier les outils d&#39;IA applicables dans les différents aspects de la fonction RH ainsi que leurs limites techniques liées à la gouvernance des SI et à SSI ainsi que le cadre juridique de leur usage." style="html=1;whiteSpace=wrap;" parent="QrdZ3zOz95iLeTfScC8g-65" vertex="1">
          <mxGeometry x="665" y="35" width="180" height="145" as="geometry" />
        </mxCell>
        <mxCell id="QrdZ3zOz95iLeTfScC8g-71" value="A la fin de cette séance, les étudiants ont assimilé les interactions sociales autour de l&#39;usage de l&#39;IA dans les RH ainsi que les enjeux de son acceptation, notamment sur le plan éthique.&amp;nbsp;&lt;br&gt;Ils savent orienter les achats de prestation et outils utilisant l&#39;IA." style="html=1;whiteSpace=wrap;" parent="QrdZ3zOz95iLeTfScC8g-65" vertex="1">
          <mxGeometry x="895" y="30" width="200" height="110" as="geometry" />
        </mxCell>
        <mxCell id="QrdZ3zOz95iLeTfScC8g-77" value="A la fin du module, les étudiants ont identifié l&#39;importance des SI et les enjeux de l&#39;usage de l&#39;IA au sein de la fonction RH, tout en conservant la distance critique relativement à leur efficacité, à leur utilité réelle dans le respect des règles déontologiques et du cadre législatif.&lt;br&gt;&lt;br&gt;Les étudiants sont en mesure de devenir force de proposition pour le déploiement de solutions d&#39;IA au sein de leur organisation" style="html=1;whiteSpace=wrap;" parent="QrdZ3zOz95iLeTfScC8g-65" vertex="1">
          <mxGeometry x="1160" y="12.5" width="230" height="175" as="geometry" />
        </mxCell>
        <mxCell id="Dlzo6lsR4_II9Ef_QFj0-1" value="&lt;h1 style=&quot;margin-top: 0px;&quot;&gt;Présentation du cours&lt;/h1&gt;&lt;p&gt;Dans le cadre du Master RH, les étudiants et étudiantes, tous alternants, sont confrontés à l&#39;accroissement des usages de l&#39;intelligence artificielle dans le cadre professionnel.&lt;/p&gt;&lt;p&gt;L&#39;objectif de ce cours, situé dans le prolongement du cours sur les systèmes d&#39;information a pour but de faire d&#39;eux des managers éclairés et responsables dans les usages de l&#39;IA en entreprise et plus particulièrement dans le cadre des ressources humaines.&lt;/p&gt;&lt;p&gt;Il s&#39;agit d&#39;un cours magistral dont la pédagogie est marquée par une participation active des étudiants pour leur permettre de développer une capacité à s&#39;exprimer avec assurance sur les sujets liés à l&#39;usage de l&#39;IA dans les ressources humaines.&lt;/p&gt;&lt;p&gt;L&#39;évaluation est coordonnée avec le responsable du cours sur les SI. Elle consistera à confronter les étudiants et étudiantes avec un prestataire de services en RH qui cherche à leur vendre une prestation faisant appel à l&#39;IA.&amp;nbsp;Les étudiants et étudiantes devront être en mesure d&#39;analyser l&#39;offre et d&#39;exprimer une proposition argumentée à leurs managers.&lt;/p&gt;&lt;p&gt;&lt;br&gt;&lt;/p&gt;&lt;p&gt;&lt;br&gt;&lt;/p&gt;" style="text;html=1;whiteSpace=wrap;overflow=hidden;rounded=0;fillColor=#FFFFFF;strokeColor=default;glass=0;" vertex="1" parent="QrdZ3zOz95iLeTfScC8g-65">
          <mxGeometry x="30" y="40" width="380" height="350" as="geometry" />
        </mxCell>
        <mxCell id="Dlzo6lsR4_II9Ef_QFj0-3" value="Animation Pédagogique" style="swimlane;horizontal=0;whiteSpace=wrap;html=1;perimeterSpacing=1;" vertex="1" parent="1">
          <mxGeometry x="50" y="690" width="1410" height="190" as="geometry" />
        </mxCell>
        <mxCell id="Dlzo6lsR4_II9Ef_QFj0-14" value="" style="shape=image;imageAspect=0;aspect=fixed;verticalLabelPosition=bottom;verticalAlign=top;image=data:image/png,iVBORw0KGgoAAAANSUhEUgAAAWgAAAEECAYAAAAF0670AAAAAXNSR0IArs4c6QAAAFBlWElmTU0AKgAAAAgAAgESAAMAAAABAAEAAIdpAAQAAAABAAAAJgAAAAAAA6ABAAMAAAABAAEAAKACAAQAAAABAAABaKADAAQAAAABAAABBAAAAAAVQooHAAABWWlUWHRYTUw6Y29tLmFkb2JlLnhtcAAAAAAAPHg6eG1wbWV0YSB4bWxuczp4PSJhZG9iZTpuczptZXRhLyIgeDp4bXB0az0iWE1QIENvcmUgNi4wLjAiPgogICA8cmRmOlJERiB4bWxuczpyZGY9Imh0dHA6Ly93d3cudzMub3JnLzE5OTkvMDIvMjItcmRmLXN5bnRheC1ucyMiPgogICAgICA8cmRmOkRlc2NyaXB0aW9uIHJkZjphYm91dD0iIgogICAgICAgICAgICB4bWxuczp0aWZmPSJodHRwOi8vbnMuYWRvYmUuY29tL3RpZmYvMS4wLyI+CiAgICAgICAgIDx0aWZmOk9yaWVudGF0aW9uPjE8L3RpZmY6T3JpZW50YXRpb24+CiAgICAgIDwvcmRmOkRlc2NyaXB0aW9uPgogICA8L3JkZjpSREY+CjwveDp4bXBtZXRhPgoZXuEHAABAAElEQVR4Aey9B4BdV3UuvKb33lVm1KslWXKXbZ7lDpaNK9jYFGNCCYGENPIHAgmBByTvJXmBhEBsxxQTYmwHywZjXMGOitVs9TaaGWk0I2k0vff/+9Y56+rM1b3T+5wlndn77H72Xvu766y99j4Rj+x/rld8CtkDPREi3ZEib+3YJu1R8OPeS72957vO62eaiIjzib3+weZnul7WHxUhEagmOzFFrlq1VpI6RGJ6Rl6+tSnY9bZvOvuDx0v72zOe0/nZvc/GflAeAL+S30jdPT3S3dsjXd3d0gO/hnv42UnV9+95bu8bHu7OZg7rjoyKlIjISOlGfV1dXeoyPCoqSi+WYe1kOK9etqunV8MZP9T6mYdk7XDuJt/f6MnXpMnTIg46wXH1yotk14F9IgBrgvaYDqqH07z11Dc1yo53dss1F62VKESgKcNmSvZwMEAF3zONT34PjFcP6A8BfiyMDxW4Adp0jQyc1UVcD35ESJbH0k0n1wfoMKOpbOECYWpCkqxbcZHsBkh3ARmDJekwRQw92AP+BGdKLtoO/GG91S2NUnL6lCzImw0pulci2T4w6khoopmbP4ATSV4AmMh2TFTdE9z9AQAmHxpIc0zI1zY2FqfA7ErQQGVNP1H9Nl71+gDdT08THHlF4Yc6DSC9FiBNSboXmEjwDDA3EwVu+ilwKFEsk8Ry4Td1y4HSYpkze7ZEdiJ4BHUa87MKr5/340kjeYbxbOd0rIvAN1Fj762X7eBlFBxH4OZFMoHEVBxeILf808kdmfg1nXoi6FnILoqN+EOsVJCOd0CaOmCVXqkLw78eMpcBalA5o3XL4gnS7fhJ3bJnt0rUfX4kRquicS5HnwHPNVEuNJkyUy/tcw8wjufQGyiby7oJzF7ADY7zAvd4tnUi6/Il6EH0vkl5/DWjJF2YP0vKzlQEAFzBmWjeH40CgHNCUb1S46o6FkLVwTZZ+/qrvr84r/TSX7rpGDcTJ72NI8d9op+fknFEJBb+PCoNk5atfSY1W7vVpXA0UsbvU+DkvPEBegjjQozlAt282XNVmj1xugLSs1NAv/iMjKHivWFef39NYjqC9IEyR9UR3e1I8/3l6S9Opf/+EoxxHPt0vMkLSvbj5A0b7/bM1Pr663uCtFeaZh9ZevrJNzZm3nDGTSfyAXoIo2k/2LC4k/kAaVJpRTlekR31gwYE/xkGAnnBmtn1LdRTDiXpTjRiG1Qd71l9iaNuQSZPkuBWhLwP1IOMAX/IlGMTyPaOg3bogsZ7J/RMmOQXdIAngH1hfeAJHhevVzK2MTGXDaDf7s1Pl/ksr8WPS4MnoBIfoIfY6dQ9k0ySPn36tHT0dgsEWZWqNdL9ozo++AfDRDZJmCcYaA3IGGFx1EfXNjfKvpJjsmrhEonu7FE9ubd+zDwHARFo5Vu8ATLDQ9Vp6cbaZRMn5NfBfbCJfoMY6/4dqHzjp4HSjVW88qWy6XkwZljwZfUbOEfDRpp8Q9tpXtOVfIAexshSko6E2BwNBfDalavknf17pQ0gTTJQHkaxAZwy8AxZhhtJh5toTtVWSXp1uszLzJVegDQpMOn6LUiTTvgfNlFBeoJaYpLYBFU/odVyo0eAVya0JRBuXCsNNsPA2dskjpOF00+AjoyIlKamJm+yaef3AXqIQ2qYR8amZUdKTDxspFfJzgN7pR0gTYgkSAdTqLDgNAPeo3Jv0dRFN3Z3yKGTJZKdkiYpkbH44bAW9l8ay2FKk+4Hl6v/MocTa+0YTl4/z8h7gONP4JtIMh5kGwyIGUbQNuDmrsI+cZSaOR/Qdm/+iXyOsajbB+hh9qrpo2lFkRwbr5L0bkjSBOlgKdrAz9zhVBlqCrE81CaN7a1yAKqOdUtWSAwCqYYJlT64Xi84DiZ9cP7pcD+dJ/eA4+NhyPEef+U9gDDJxoAAbCBMtQXBma5JzvY8mp55yeeuOsTipptLfPFphD1AQEx1JemYyKg+Zm/KgmPF/SiXRXdhy2tlQ40UnzklvTFcwlTeVdf/4/fAcHrAQHM4eQedh1IyAJibTijwBIMtwTo6OlpiYmL0TA6Tltk2+g3MB13fFEzoS9CjNGgEaUrSc3LzpazylOqHqZXm26OjGR6litxiFPhdPxcMW3q6pLjipGQnp0lWQrJEdg9Ov0hGH5S4PbrNnzSljQsQTZqnDWoIhj4gQMBP4j03XwXIDQ/cj7LH+l/5EOo5KDW0Bt5HAZwNhClJd3Z0SGdnp4JzfFwc9NDRfdQgo9y0SVGcD9AjHAYPKyvOLZg1V1UMpTgzww5XGmEVYbM7kwnRmERUdTR1tcv+0mNyxco1Egc+54/GQDTTAXqg/pnO8coerpqBz6n3LmgH/IPgoZH0EQFYCYCsYN0FtQYXDLF5hQBNoqqjpaVFGhsapLW1VaXplORkSUpMUglbE03TPz5Aj+LAUtgw8zvqoUspSZPhGTGKxDnjLZIyB8M6oeo419wgR8vLZMXc+dINq45IiPHetN5maDlsnzdwpvn5BjFDSQGRwIjn53Z3EvGapoe6jjJIxhhKD1paFk3hgPfmt0XBLkjJ+uqJOLarvatTTUrP1p5Tqw1acGR0tks6wnOzsgcliKCoKUk+QI/BsEWC8WZD1dHW2SEna6r66KRHqzpOIF2o9LiUotvB0qVnKyUxLl7m5RQgDfR7rmWHvU6yDTr3kLcHcYF5yNni07TvgcB440mNJximkqv79GYfrm9YTOeGk7eDycoIDg++15xuQYFicM9wciHrgjGd8i7zUnXXiR8L7tg9AZ6msCNYYokAjzfUVUlvbLRkI2wwb4osbyqSD9AjHTUyjUvGxNz/nRAbpyDNzSRNHW3KbIF4yzBM16pkeWqTjQDV3IHBu8DojZ1tchwqFrYhLylNYlgPpSKKRyCdfMjD24CfSTR2ZvyxvvA+bagwb/x08usPvAuIfC49MMrlj2BQHrXn9jKYx6/87N7rwf3kZ1zNmDe797yrwAyNh54iyR205HUqRk4CtBfNLhy15k3GgnyAHsmokGnC5O/t7pH05BS5fNXFsn3POwqaKgGEST+cYFTvEBpBv76WwsMNLDxQ6XhluSTNiZU0WJhwpZyIbIAckJz5DMjP52D+mUKhwDhU2HTtD445pWH9YcdDcvy9RJBmf4wXS7AetkGlZoDwyfpzcuR4MRYCRWKhplucXSDlpyulIc450ZEvhdr28Wqgt3PG0e8D9Bh0tvEMQRpfrJIVi5bIvuIjKkkriI5inabmsNc8Mi0ZvRMRZ+prJDclXRKy8yWajaI6wwVpujopIZqo6+YzP25nBJm0yIf1+qf7wyuPEqVd4r3d2Q+VpvHEW1qva2m9YWH93kpcvwURmClY8G2zuPSEnG2olWgwc0q7yA1rr5AHLr5Dntq9SX5xAJ+fYwXMyGuakw/QYzjAqn5A+SnxibIS52Xs2rdHDzkaDUlVgdlt+wUgDcYlw7dD/3wKOnB+EYamdxBGJh1N9Byb6PondEBcKdna4O0L+gnYBODgH66AftoyDtJleahSSf28h6cHwNwBJCrHIiBPaWSSBEjNC+Mz5PO33ytrUuapSuNja++QX+3dpvmZT/meBU1j8gF6jAeXTER9WSpAet1Fq2Xn/j3OYfsIGw2gtuYrs4KzlXERSKYnSNe2NMmp6rOSUhAvCVExEkGpHlOgRzO4k9AzaTg7xovntdrxqsw6KsjleRQziYLB1rGjIHA6TBCQiNEt5jeX/cTesnv6XdYJ5Gea/sjb2+R/fsqtE9cevGFWQWqmEBEPI45LZy+UL274uOThPhZXK643ijdr/TxigR/NyE3NmNYLhHhk8QGavTDGRIAmZ6UmJMrS+QvlSEmxLnxwI4uqPMCoLl6OrCWog/PM6uNE6kLBZ+trJQcbWGZlZEt0DIZcQdqtKkjFMbIGDC+3TfLh5fZzDacHDJAtL+/NioNf9NYzMBRNXVUYEjJNAJxd9UhwOVbeYFyCc31Xmxw9cULONNVKLOrLBBJ/+Prb5Pai9ZKIQtiEWlx//8ZPZEvpQWnHinccpeusAlk4pxBrK84cGkx9UzGND9BjPGoEH/KygiaYqSArR9rb2tRGmuBMkCYXkhFHA6i0DBSmLiYUt4G3dHWoqiMFhv2ZVHVgOzoXiHTCsXokHslE4yNMJQr1rKHCptIzDbetAcBFAVER2CRCxMMuVHIQfGqGyS+eMGQwZPwXLi15zfTNlJx37H5X+S8ZE6EwMUO+cP9DskzyBWuBOjfebSqVR194Wo6010oLRGmutaxZvFzyE1L1sDKC/GDbFq5NkzncB+iRjA44AzgXloxxLIku5BGks3E0KDJWVldJCwzuybBMS+YNpoEk61B5WIYVxXI7MdUq6qslGQCdNz9TV8U5MZnGdnJZW5l3JtGMBWaXQbwA3Q2ejCQzcjEZjEfe02R03fTB/UW+caMCaY1/AuEuc5FX6SUwF5+rlOMny2ACGiGpbSLvX3mFfOyyO1Rq5g9DHa4f7tok/3N0r1R3tUgXkConPUMWwqyOJ0hS6NE3UKtsmro+QI90YF3mC1UMmdqijVkJ0omwT87PzlHO5hdZSDovggqxPEHBF9xaHd4ITi4LZ9mUNIpPnZCClAwpxNnR1EMzjVl/WFpvGTPC776qz4hn9TwkpWKHXOkY9xCg1Y5e367AEExBHnGQF/Hclg2mDoA6f+QNud3Sgh3jL+NBgvMuHM1b19qsxxGkQt/82Tvul5uyVik441bKpEa+9dTjUtJaK81QafQApZYUzpf89CxJAOdyty6JZU538gF6LEeYTG5M5PGT6ZNi4lTdce4ctq+6G1lGuylWNculVEKQfrf4sOTl5kp8FxYg0A6aApLCSeIaOY3/DAQw0/XRCcZKYFDlE/ICLoIzf7xVmobLNz1eZGTtK9dVHXVQ5yC7w+/00A+XYEr7/w6s/pVUVcrhU2UaltwhcnFekXz2vffJPMnUzVQtyPNy9V751+d+Js1QZ3QBnFPiE2QJ1m34sWYuDhrgawUz4I8P0GM9yC6zeqtRyRUBBOnVi5fJ3iOHpAG7/1SfBmYOkcWbfVh+AjAnChdl9gCk181f6nwiC2FsD6+ZSHj8GUn23HRV9QC1BoEZnAApGkAI19nI4gAzQdoAmhK0XcE/cMpGKIau/ugDVGnfHJCaEZEIMfnB99wqdyy8VjJYD9LyuyhPvL1JnoOdc2O8kz8bKo2lhfPV+ohfMJpp4Iwu8a042AnjRmBOCiNK8JPh0qPi5aqVF8uW/e9IPUCazKyMPQaN4ishXzGPQtVBEyWqOqIROJHgPJF1s4vtdX0MuntSF2nPHQW1BTjABWN8kBX+KHxKqgciNsGX/5RpXcZlPjvUiH47DtT7sGBrR2WHrDwX5kzNOalra9a3tnkRSfK5+x6U1clFCj4QpOU4VRrPPC4nmmulA1Izpe4rVqxRASYiKlLHaKL5xPt84+n3Jejx7G3WBeYjRvOi5KC7pZKSdEv4b7dvlQ5EkME1ARz6mXZg0lz9JiPwU4ruRNJdh/ZJ/rUb8CPRF6CtroFL67eqQUWyrrH6MRpUA5go8Is56BzTIqEBHkGW40AwJjjzv6o5ANIqRSPAMRWn1AzgxZ/uHpzN3E05G/bI1F0zk0vkG9M3l5SVCj+qTMBNxYreqvwi+cr7PikpSEN7Z6wNyvOwbf7xa7+UmgSoQQDOuWkZsnhWoaRFx+sbHg8AC9Y19+HN81WjtOlHPkCP85gaP9HlJCFA0c2KS5IrL7pYNh94RzeZkAmVERFP1yZU6OZqSssRMgknoElN3MTS1NMpb76zQ65fcxl00daq81kvDDkfNx181hdmxTIdnmkoz8DxZR94PxxLYCazRbsSNFUeCt9IR5V1D9YreKhSFw/P7+pSSTo2FspiEvKRC/kGqCoNfP6ttalZEoHjBdFJcucV18ptK68NLARWI+03f/kD2X3uhLTC4JnCymwsYK+ahy/UozLyuwGzthXxJNYRIKe5gdvp6PEBegJG1cCWjEfiPRfsZmGVevXCpbqQR300GVQZsg9XOnmMVVXywYTqhf0q5pFOOn01dSVDAyLWZSBNqaQXks+ZxhrpxCEdlGa8CzDMw7QqGLngHQLDtSH2LFaPtW6wbrhyB5t/uOmsSwk4RsN9Bss/VVwbMzIM/boIiMazJ3Tc4ariAzzAeKri2DdgGWczC4CaO1J7IEmXn6mU/AIea8ty8JV5HGh0srxceru6JQngvDq/SP78tk9C1+zsCOQ5Gvvqy+Qff/GknOxplqZ4LkiKXImPTFBqjoakzfoCvI/0uD0/SkjL+1EnlDssGpPGnG9JxCP7nxvjKs5X5vsczLMJQqmBfm4gMQanjng/ziM4cKpUz+2wPuvLP86QKQbjT6Srp+NngQxcKRnST30hJ53pChnGdN2YQJH4ekVKVKzceOU1khWdoJOD9SiQa8VOrRH4ASBdAKajtE36gnK1trH9w36YqWT8R4BWtYbbERwH65UOHIbfjK+YkBhOwCzDjj+qLJqamvS3m7wakZmsfEobe1JTC8znAMwZ2BH43ouvlIeuuF03nTCOpf3HzuflN7u3SitEQx4dmp6VKUsXO1IzJWeCM7mN7VDucxs0Fjxiz8qKAn7UOxTytnEo+Qab1pegB9tTo5iOzKaAjDJ1gF2XYTxjYMW8hfqaeLi8VKULZc5gDkJiwxg9T8ItyADamusFIoJ0ALAB6kBi1Xlv3rNLrr1onaTFwsoU9USiYGcSs1IWzHdOTGXchpooTOGtx+oeyA08UsAzUI7Ri7d+H70Sp15J53+IHYDi2HIo6FKqJSifcEG5sbkpEIdgJZVywUZ822sAMJN3KTVTpfGHDz4oq5Ln4e0MKhGkbsb1dy/8QHZWlUkrrDRI8wuLZHZ+ATbHgL1YMeuEY+xgYUxrZHXb/XBdq2O4+ccrnw/Q49XTbj0uH+okcEDwfAN4T+khhgsqhQulqa5eKhprHfO788kCPoKiXmBplaY9LlUelJQJyI6eFQAL7g5ceF+l5A0hWuraW+R3+3bJssL5sjBnlu405ERwJoPzQ6Abf/sB6UCjhuBh+VNlogzhsaZEUmdsnaZyDBRsEcjPS5WdPCGnKiqENvpGCt6IJ3DTT6IEzeN0ybdU0fFo0CuyiuT/u/NTuhBIsGUJL5ZukV9seV2qOpqhUsPHlbEovnbFKpWWFZGRxi0SvvNk9ZwPgc/DMKHy9Ek7DW58gJ6AQSSPkbk8vBZoBZmdOuEIgPRVq9fJ6zu2Sm17Mw49ciZRIKHrUck1UJAD1ARhRydNvbSjm2ZtFka/Ajr+9FICwn1tR4vsOLxfampq5JJlF6k0dF4v7Urrvd0QpLF0hPpCTp7gxg3ifiZMskF0w7gmIbvoRT6Bn+qMEoByeWWFVFWf0zBlUEoLTOCmq29qDEjWKSkpkpSSDCHAeetLgr3cR27YKHctWC9UdjAbpea/fx4LgWfLpIkbT4A2C+cWydy8gj4LgUPiJTIMC3ed6c4/PkA7Yz3p/lIXR0n6imWrZMfBvSp9UMrxEl9RGUSXXOu4TgqTri09781+1dQcmhkJVHpiCfhlOFZdKed21Mv6VeskHSqPGMyeSByeE6H6FAA6FoYCIO0Wrj8SVpHvTokeICgeOHxITp+rcuyUAb4Mc7GvzzNYOH/MySsE50R8VZs/4Ing0YKoJPkCbZvT5+nRoFwIfLu5VL777JPKt+3gK66z5OADr/PwZZQobFQJlOmw7qj94Pdp+DS48QF6Eg4iJVQSJemM+CS5dPkqeXXXVg2jCRNfHY2CQZnhBs4K4ARxSspBAB2FLyO7c0MnpU4YBGC+STWk6Ze3vSVrYFFSlFsgydFxEgFdCJYdkccBaUcEZ20sxafJ0gPGOxzPcHTo0CE5cOigqs6opqjDdzO9G6QsK9lQLwvAPcE5LQngDEbhjsCb114pH8EhR+mII5jw3OZfHtksj77xgn6eqge2zSyjtLRU8jOz+3AL28iiGe+pAnc+WQ/4VhzWE+PskiE5maLBmsk4J5pwaZOrT1MArFyEqcVOrDeg7mjDLOikeO0mJnNDAeH85VGR9Km0C302d4mpdK3B6qf0zHjGRUJdQUOM4C9ksGguFlKCX4JNAwsL5khWYopafbBqm1GEa7dk1/Wdie4BLw+FAmkF54MHVWIlX53Dtyvp6g+0p/F6j+G1tyuWOwcLepSaeY5LEsD5oRs3yu2L1wvX/LgQ2IDra7/8vuw5g4VA8Cn11eeqnK/aG6ewilwcFLbAXSDkPVkqwEq48aZllJc0TjM4of2l9eYL9nuK0Ar73Acn7uc+uD39JB1WlC9BD6vbxieTDT7NjyhJr1u2Ut4+sj+gBzSmcgDZuaOfF4HZANrCLJwuyfLb09g9J6dOTLg83Ka1vU2BOj8tE5I0TbMsM+ry/ABYOb47OXqAoOoFXoLzQRecOb42xjbe3lZbPMGbUnNGYrLEEJiha16YmS9/du+nVddMHuWOwP11jkqjJAK2ze7eFcaRzCV/sdzT1VUK3PyxX7ZkqSxZsiTAi0xrfMi8JMtPP+MCLBeckAmmGfkAPQkGVFURZEMXOL1N4lkJJDJpYd4sqW9rAWiWSju4WyeRfq1bkyggE3xNx2wA7bWPZkqGk7f1S9/G/qzeKSbwl+qOCGxkOYlPZrW0tsoV2ExAe2mVohnHlMjECe7T+PWAV0oebK3H8IXs/VBrcNBoq0zeUYsMsJeNuxfM6Wd8fHqKxEOlEQGJORHg/P7VV8mHr7xdpWbqmsukQ5555yV5c9sWtWvuBqK0NzRJY2OjNg1FqNosUAkCyObkLX4XYP/BA3IQuvDExERZtGiRFGDTS3wcj+sHWcOcu8DfQDALD9wEogMeRk918lUcEzSCZB5ONFNxcHtt8MSzNMaHlGbaMQH2lR6VQxXYyIJ7XfiDaoNSRRRtm0EEZFJMDBSAoC5sy2UY9c4EZwVshKtGOdwmFMSzPQRjqjsoxeckpMjVy9dIesx5kGYZvhTNXh4fCuaR/mo1wKUN80uvvKxYRnDGcOqPKq13uFmEQKy7S+FaHqbJK8jXHafceLIic5Z84r13y+qoWQGVxoH2CvnSD78rjS6esi2VlZV0AsRyvIQq+oCq3rsJTKDIzMyUhQsXSk52tsRE80j/8BRcXnDKcHn7tAuJ+twHF9LP/UD195N1UFG+BD2obhq7RLaAF4oLlWnIAfBw4hAsOVlWzVuE+145AvVDFwC2Q03pHBYjkxO0SQFVBkQWU3mo9Ix7+/6cJvT88TKc+vGHpfHHoBr6ym3735UNl1ypttIEbqdWTwG+d1L1AMH5zS2bdSMJpWbqpzhmvDiuDNJxZhg8DE9OhZUGbJX5o0yVxsqMWfL1jX+gKg1E69Gg/122WX768gt6wJGGYXehSc28N2LZxiNWD+O8fktrfEv76+rqanyaLVLWrF4jRYWFlmTGuT5AT+CQK4ByUrgAGkrFweZx4pDo2OLdSoB0FRi5oadDOju7VUqOxOYTAjGJZQbKxT2B2SRojdNUTIsLK4XczUXSSYogm1Qa5oZTgq/Bin9DR6uqOlBF6JnGTD5NaA9wHAnIBOfKc2cDX3nnkBkQc8iZxviLg16Qn6+CQKyr0njo5o3yvvmObTOSChUXf/3sd2VnQ4W04gS6WLystTaGBmckVWK+oZDxLlVwO3fulEPQm2dDmr7kkkuGUsy0SOsD9AQPI5nRJIfBNsVW0q+79Ep5Y99O6WjtAUB3BlQbAQZXBAWGArTt9dHi+GOg0jRmKcvjl5L5+swvX3Th0onraRAnGSc3QboKXwlPz4aaww3zJPO9E9wDHCeOHdUWr731O6nA+oGaZuLewJnxzvg6HxVmk1OxEMjzNPiWlgBwXpU5Wz591wOyICJLx5nmcwe6KuQHv35WDjRVSLN7qH7VqUrd1MQyxopacCYIt5zzKoQ0nZOTo+5Y1TeZyvUBegJHQ9UbqN/M3AbbFMwvff3kK2gujP/ba3ulo70dagsaO11IJlXzh4D6546ODpWu46JjsUU3UhrOVktFeYXO4LjcLMmdM0snOI8l1YmMCgnelLQ42euwqaEHn1TkSXC0i/Zp/HqAYxBOD22SMcF51749UlJ+whlH3Ns4ekGa6YDFCs5JsBKKBfvQtvnWS9bLw5ferkeDIonaNj+x/Xl5cfcWqQMwt2JpowGqE1ssHr+nd84GIVDTGmX58uXTXv3hA/R4cleIujipCHQEaUqkwcQJ1R/l5eRKU3eHNGPCtLU5J9dpeqo6cOmERABfFxWc29qRDoZRVIdEduMLyUly6mSFJORkSRxWz7ta2+Xkrr2ycM0qKTtTodJ0NgCbwjjL4kQ/BwmarraZ1fTXQD9u1HvAC9L0G3F8+ANKyZlbt01y1rFCOsYruXkYnjkr3wF8ADNtmz/3vg/I9XPXKjjTSmMnpOZHX3xWjpyrkE6AM0H5yqWrtOwtW7ZIM+5ZrqcZTh1j/JdSNdUfu3AVzi2ctuoPH6DHmJH6Kz4g8QA8zd9f+r5xnBK9kpGaJikNtRIfEytdnZ0qGROYvaR32AnYA2sOStrtAGjYjOjXko8dOI7V+lmSmJ+loMvNKWeQ+RxAOzUhTuq72/UYUpuBnNSUoNlelaDhBia+t1LfPyY9YNKzF5hZkY4HxuKJn/5E1VB8+6GEbG9B1DfrGLqDlYRFwMTkJJzb7OiRl2fNlt/f+IAsF/xQIykl69+W7pZ/eunnUgtgbodt8+xZs2R2WpakwSaaZa9YtERBkkUPhQfInvzBhzNiYr0n8GPEi3rqoqIiR/0xlAaNuBVjV4AP0GPXt/2WTKALqA1ghdGFa7CvjA7vYYchPMyzsHCeHNi/H7jMAIf7ubsQd0pRMDiNx0wtOXRMYvNzpCAvX2rPVEm9q9bIzM6SZkxoWmpQx5w9d5aU7Nyr6bqrqiUJ9tfcwcg4FkowaG5rlUQc3tGjUvpoTDW3sb4Ttgeslw2kmZALvwbWr7/5uz4qjQBIkyWsVPjz8/IUHGkRlIaXqQ/dhIXAhc6OQCbjQuAP38a5zbu2SIu76WTRnCKZBYDmIjWNOHnaXUlJSaBcaxvzD0Rsy2iDNOvkonlNba0cKy6WWbCnzgefJyTgPBmYm3K9ZSqSD9ATMWouN9vEoqqgEfap3ok3ULOYtxsZOtqaVA2Rl5UjZ3DwDaVaTgD9IrN6HEmlDoAcG5couVhg4cl4XGiJxUdji3fv0/SUsCgV8SLoZ2ZlSW97Jw5KcrZ8c/GQxHpZbAXsXefnz5Y27DL07aC1a8b8D7o+gLTqx60tMHNMqmqqHdUTIk2twR9Vjpn+diNRQW6e7gjkovCy7NnyyK13ydI4HDHLsnAdaa2QJ375rOyrrZAWSM7xSYmyBDbJpNOnKqSsrOwCW2fGsf7BEtvO9PYMg803mHRU49XV1Ul9fb22NQ/Pm4cfpLS0NFXh8QetD6ERQ2l7n7zjcOMD9Dh08gVVgCNUCwG3j5pgiBzLiUe5gFYYSxYsdM49wMw06YSzkru1SC34PhzP4eXE1VdfG/noKGlsaJCI7FQnofs3EUdJni0r7xPmvdEfCLA29ZyTmcG9bZ4WfpdHjFWoKiBt2bZVGlqxCQURDOJFwFWAhjsHQEWTOC4E8tzm1bDS+OL7PwPbZmdXKb928tLRzfLkKy9IMxYB23GZDnvHzh1SU12DFFOHaK3EL8KUnXB+UNLT0yUfJoRZEDxMquYvxGTnXZumU6fnp0tLPZzh8Q756SIwI3WKoZA8HEJDKZqTl2VSzxwBG2dae/DV1FQoBGkSJ2DB3DnYYNAkaQBoy8f4xIxU6QQ+GwA4OZy/BAG+SvJcX9bDe5/GrwcoDbPftdvxZ9fu3dKIjSIkhgfIHZcCSJBq1wzFMsH5QRxydNuSK1XXzPTHYDb3OBYCD1ZXyOnOJmlHYEP1+a3aLM8EitEa6tEqJ/CsYTz8wG1PT5ucOXtGqvGGQd07JWpe3IwTH4/XhElMPkBP8OAYo/aZWINuEwAYCEog5mevsjMypQqnhxFUCZqcyLG46k5DvQHpqQ1SdFwv7ONcYp1JaalSidfW9KJZCuDMR4DmaWRZ8+bIueIyaYCEHRUkYRsoK+izIJ/GrQeMZzi+WF/WcWMYwcekaKI37ZqzUs8fckTb5r+6+zP6tRNOfFppcLv2N7Bd+wjOAbd1Bv0BZ4GecaXXQBreEZG1f0SFDDJzwJSVVkwwL+3AQnoDzgnh9xWp5uOVkZGhB0INsshxTeYD9Lh2d+jKONGoqqBLGoiBA/MGCWFYB0B1CshOy9DJqhMMQQTr5rNnJS4eCyVI29TaIlmY0Px2nKo5EMazGGhiV3O2SjJzoZ9GQ5ifLqXoUI1h/dX48gonMD91ZO3Wxvt/xrwHvP1NFRZ/JHnxRzMJoMw3oyQcqI9bicFWbW48uWXtVfKhy24L2Dbzayc/2/xL+a+3XpaK9kZphRKaYx4om+PqPom5HG/1w1UKRLj3k9ixvQBsop1NU46vj588eVJbPXfuXD1Vjyf3TSbyAXoCR4P8zQlB9QPVEOlJKToBApMkXNvcLd2cJ73ROHsDIMszorvxgbjlOL7xwJHDal7VjGMd56xegTogZTMxQLhs3wGZv3KFbjYgSHPxLwd2zif2HJBZmTkargDPsnGlwMKDE1/rYhj97nXowAG54qK1aDsCfBr3HgDLSERMlK5BcHzxEqVSbkpSso4XgTkbyuU/++gnZXlaoQoBwGuhNvl/P/c9OXL2lJzsxGH9LgqwjD4jGXSvcW4YnClLBtZcYDU/gZoXddQBU71J8IQ+QE/wIJDpOTHmwSKCIG2TpL8JYNu1eQIZzfN4dWB2dsLlGR3HDh6W0wDjJFh2cBITuFlPRl6udDa0QOVxThJnIw7gTGw1fKUqIybrvC7auqYJ+s00hNvsZdt4/e6N38o1y9dKTnKaJg20WWey5Q7tBtJ6okOFeaKnvXcQ3danDzhudS1Nsm7tWnnhjVdUAqbkrFv3sRjIr508fNnGwCFHPLf510e36kJgIyTmDlx8g7J+p6DQh4LuL2hfUHyfvN6b4IyDzectY5z8PKSJ165du4RSNXcr8ijUiSIfoCeq5916KS2nJacoOFP1wMlF4uSjpBogpDt/S59z14uvopDfu4HslIj5ersgLVeaK86pTjEKhWCuahqmy8rIwrbuckmZlav6S9bPkjKL5uAgpCbJjXAAGkEq3VMa44loSkhr0jNdmiz97Ec/kT/9zOe1EJZPCnad0L5/tRxLi7IsT99UM++OYxEgdIr33utnGvJIekqq9CTGSmx2Gmx9kd610vjoe26VjcuuFpxnpJtOquH+/a8fk3dPl0pnUpSuSSwpnCdV5ZX6tsXybBCsnn7HxBJpxvB/wpUxyOzhCx6lGAo74YhbymuxGJ6MHz3agOfm5qqpnknd4fKNZrgP0KPZm8MsS0ESfMIT5ShBk4LZRhnaDTTmtjAGE4gVoHGzZvEKObL3ICZwrwJ+hCslERST0iEJn4LZXW2D+g0oGV5TUS69UHcYaFs9bA/9gcvTuFP4EvQzzz4jd99zD5MpMX+/xIKYxirw+vvNOP0jg/tOu8jtT+su9gLBmTrj42dOyZu7t0skZnI8VBqpWPn76u99XlZIjlppcCHw3fpS+ebPHtNvBFKlRUn5vddu0F2oO7Zvl6bO9gC/eetgPVo1AjNwRjMX0yhNcjGS4alYYLY0PAeax4QGnwetCabwH9pT882SQE3A5lnVlKwJ2uMB1D5ATyDzcDJ4r9FqClemaZh/Egf75+amSnQUtoFjMhPAuVKfXQjrjBPlkpW8QvjFZUrdpEjYilZih1gBpAUFaRcYGmH4n1HoWHkwnD8ivAjuLPd/du+QjR+4x3kWhOszwe2P7IehvzR+XOgeIDjzww07Du+XXSeO4qs3jvncTasuk0cuv0MXApmT3wj86aHX5BdbXpd2iNIcl1Wz5slVKy/W0wt5ttYNV10rv4R6hLzBBDbuXCzLwaJxNqTGFAAxAcmGlGNHsnv6kxcvlsW4SFSJGWBzd18nTlqcqmQ7EFvxRSFeNVgcP3PmjFp9UFfNjV9jST5Aj2XvDlT2IMFsoGIs3p03zkRctUoOlByVhjPnFFw5qXlxOzel5XOH26WnrUMi8XoMCzylFEzCeqg/InA2h5XFyUmJm/pxC6OfF2coy8ufPUvePXJQVkBfZ+BN16RB5vNOZlYWfM8wn/rvAftRo974v57/hS7wxqD/+RHXR26+U26ce4nqm9m3xzqq5ImXN8n2c6VqocHxuvXaDTI3Pk3TU5XGH+bVi5fpD+3RkuPqLpy/QBbMn6/jYzsTtV4WagwAP8PsVlvtiScfpXgA+wwsiShdUxqlyzNjphqZtMydigRp7lakyx27S7EwP1amej5ATzSnkLFHg9xyVAJCeatXXiTv7t8j+wHSBFCe8WxSEidXBgz1q6vOqf2zVZ+amir1uOHOwjT4SQT1FEjWPDxpDoDbAPgMtv22Y6eWYAEyJi1Zdh05IMk5mTI7J0/VKqjOMR2Ey6aFe8w+kxzpmPCCMIaPAWmbxquyUWi//cC+tuUtVW0UFcyWy7LnyUduukMWxeZov3G14JWTO+XR3/xCmrEIiNNkZdmceXL1iosVmKPxa8zn5psP+YDqjjWLlskqF6jJPwxv6WjXOBZqP+D2CNplLEQ9Tnn0Bqtz3WjJx4mLvIzOuoBNlUEzTD/7I74NZkK1QgAkHT9+XM1H+8sz1nEmVfNNgQDNU/VIPKuaH8AdTVM9H6DHejRHs3ybEJgcxvxWPO/1Yhw89M/FBN5zYJ+01GErdw4AF4GcVwTq9NxsKdm3X9LmzbIi1E2bM0dfUdOw+ETiZJ0NYC7ee0BKz9bJvFmIx87DWqhCuCiVCdVHLCw8uPuMwPHAna4umhI2yH4wWM4FxMaAvFFevxM7dn9Zl9uEsatkiCWzPcF9oO3EHwI0dcj87FiHO3M/d9sjko487G5aafzHtk3y8t7t0owj6SghLwE4U6XBD75yEZrEOlgWx8TedOi3vmCchWsg7kOSm4H8FqrdIfMgMA9qE14rVqzQh6WEHUxckNNqUbC3+tmzZ8upU6dk27ZtmoWLfCbdBpcx1vesV5/bbeiJk2U4Va9M1UFLly5VwOZCOs35wi9Gep8OLXb71Noete6zD/y13fju+PYAh4YTITEmTpJwUZrBnFJSQPOMncerHMv7PmG4D86TgINuistKpLm7Q+IyUnTC2vhH4QwOHHMk9Tg6VH/x3cJ4JjS/LZeC79IxiO3LS8+UT9z/kLScqZZinBXdWdeokz0+OVESCnKkNyk+oMeOQi5uOedzBNoHj9UbCEM8iffeMK9fE4z1n3GvcIAHcjvEdQJqInYS1Ukvvf2WlFWfUQm4ub5RbnjPeiwGJslBqZI//vdv6SFHBG+qPe69/lZZnD9Hv2OpG4rcqpVP6EeZHBe7tzp539nTLU3trWrhYfF9BsotSx1mHC4hLxcdgy8WZ8Waa1XwTY/mb/bxiXYcoTtRIO20ybjbcflBjAosnp8sP6kfx+B28rj4OD1RrwemsOfJnsxcPPN5rybzAfp8b427j2PhBeg+k8iQGml0zDj28LhOSOblRNLJBJd5CKAlsMwoKTkmqXMKAioOxrGcWDBNIyThdLxGsh3UU1LKuvrSy2XZvIUyv2COrF97mSzFUZPxeM/la/Cxg4d0q2x0SqJkzZ8rUZDMO6Dm0LpR5tlzVWrsn5qUrGWyLu/Fir339Hsp+N4bNyb+ca9wcE/h7SNKtJSGd2FR8I1d21R6puqCLHL4wEHYTsbJ9559UlpwwBFVF4sK58kN+LBvRnS8mtN5+Uprt2d2XW9d9HMsOwjQOFKWdfPqkw83FhQc7iQc2l9742OZ3kuZ1A0LVSKlbB58ROICHncIjgdQc+44M0g9Kh3zI86Krp4H6Ojs0PM/TlWckvqGeomENJ2EeREdHa1StZO7T09qkIK0W44P0E4vTchfjgEnGSXoZFeCZhgnCCcFGYH3piagnwHKIHD1nmFGDLBAuN3YcRiTmiinmsAckHJ5drP9Y8KoqGhprKmTGFh5JMfEQ+qKkKugq1y3YJnkJ6RJHq5kIEMCDhaOBSJQ9zZ/xVKp7m2X2MJc6UiNgxUIt5o7beL5w1zAKsXh6WuWrlDApy7a234+rzWT4aTA/TD8WsAI/oyk7rHMG3gkVEJwPtvaKC9t/q3U4YO9vGfXURarbm6QUnz5hpJZFD7KcOd1N8nygiJJgmmHvpEhobXTWybDSOrij6Why7K9AK0/+oHE9Dikaal4ZoYQFCY4kDIQT0+oK5AyvIfStB58BPM/gnMnFiApWY8tobHaYe4TgJGpxrCdiTx/mheBmEQJnwuKtGw5ffq0qgip8uB8ionpX8vsA/TYjmS/pduk8AK0ZkCETgq4BmhWkE0Wy2vhgXzw6C8wXKZNyUhXNUYjF2MQEYlA5wS8CABohMRFxsoVq9ZKfkqmXLZ8tSwqmAsTrAhIXgB3XEwTjTx6IBPyxyQmCD+BdeBkiYKzgoXbGAI178m85yrPyKKi+QoSBAo3SR+wtjBtu5PN8bp8b+FhXRYwA4hS8W93bpMj5WU6pnxsWmHwx4/UgsWqZUUL5MarrpGchBSVmvlGFMw71t/mMi95xe7pksg37R4JmveaSGP7/ulvqIwP++Y4f2fFDuSezxHaR6DjIiK3acfGxqpES6AmYI4ZAZT57HxGgm03ARouLyfc0U9rGOL4o0EJn+oPHoPa0Ngg56rPqVSdzPM/rBNYpqfRPkB7OmO8vRwITiIvQOvg4I9NCt5rmNs4hisDBIVrtCeh5kNCvt4uKCzCwf7tUgdjexLrpDqDh7Zfv/ZyuXTxSpmfUyAZ+HAo0yugwvUUp/l4ryoZ6NRmYeGwpLREX6m56GiEbMq0LXg95mTJT8tUtYm2h3H9XFbGoF1PvYPOM4UScqz5VnK4tFh2Hz4gzfg4AvufaqiC1AxZNX+JXIyLm07oT4l21jGsj+1Rw3WTpfO6HCD+0BKgG10VB9UpHNdQFC5c07LgcSRKrQRpnv1M6ZWgqN/fHIs2eJ6NAA141rcYY3DCdAS/bsT/rsswgnQ7xpEWIA1Qe1RUVOqiJ1U1thbkKVoiHtn/XL99PBbP5pfp9AAnG8EwG1JPXmIqJFYMJkcDI0TQ4wRlGg1zO42TJ1Q4o5lVGcT8dJGeEhg3qJTXVElJJXYLuuVevhofB4VJKuvVephdC4EnDCGrtk03Shw9INuOH9SytV1uHv4AcFdkAu1zb7tH66DEZ3WEne3Ix/IHS/a8AzR5sMVNunQcJ/brq2/9TqrbmyU+JUkKYZlTAJM1HqzFH1nyT5++HcFTWD+SX/gtysq66vPmmWHKpYQYltD2fmLDZhtphOmhaXNNszyeWjeapDIyJgqfjXUFABo/aiSG8aJkz8vumQ6J9Whg9YPbvd1H3qepHq2mCvDJLi3LB2jthwn5M1oAzYENngic3CSGc5LzMtBnHIHY6qfLhG4WZgtLTGNlEvS5S628sUbNv0ySZhpePIN6TnKmbLxmQ+CHQOtgASFI40KE9xekRQ0no1tomKb0V+WYxgU/ivU1x8/GTccOraDL9HRJwXmd0KH9ZVGjBtCsup9Guc0eWgOHkNrAswIL4WaWN4TsYZN6AZqJWA9fS+kQeO3yqlgMrKMI2G6nEJx7cMiZpbeu4nhSml65cqX4Ko6wwzD2ERwQSptDVXFwfJk3MKCuPzjMEjCcIEz1hVlqmPTFcG8+JO2XNC3yWL6i+fOlEl+roEkWX4VJiHYuJG7FazL1gXNy8h3VCeLIyIFK6XfJvMHR4e6ZzfJYGUNyR5R5SDUNOrE2iR3oEu/Z15SUbcw4jgxjdzPeLjfLiByWxR+Ctl7XigOV2I99qILRjGGT8sGwcw8+I8GOkikX63iuxqgQ+siRgtH/fBD8j3SPAbYfBsbb4mHAhdqFqhfnon30+dagCCW61FVT8nenlBvjO34PDKEHCBpUkVyzcq2zMIVXbmMyFkOpj2d97C09JuW1VWrHy0VEJFMAH0JVflK/B0bUA7Szvuyyy2TZsmUjKsebmUCs4IxALxjTz3BKzdSF28V7koE10/Hqj3yA7q93pnocxt4LmCN9nOCyKMVxwSovJV2uWLlGQVpft5kQFyUvvi7zegc7Gg2cNQ5JvKwZXPZI2+rn93sgVA9wg8vNN98cKmrIYQbCBtIEXpOODaQtTUDFAVvoaJjW8eJmMQNtVm7zgfPGLh+ghzwskz+DgZ26QwRp5gl3hXtyvnqvLloky2cV6YIVGc0ua8u52hqVqJXxggqyNAz2+oOS+bfj2AMDSXbj2JRRr4rS9F133SVzcKwBAXS0ruCGmoRM4LbPbJk5HioFs5+XwC2vgbTd+wBtPTHNXAM6c4f0eIau4VwWikuZCX8oScfBYuOyZRep6Z7XKkR1pYinHrAPOIdoWIigITXbTzx6PTCdAdp6iSqPSy+91G6H7LKPTGImCJNMYjbQZ5gXqJmO9+aG6mfOK7t8gGYP+jTsHiCoEoSpj07FbsQP3nSbJEEvTdMvqjvoUsLOwXkepv4gUJPoaJjrZ5hPE98DBigT35KxbwGl6JtuumlYFVk/eV1vQQbSPDCJemjbXch7qjYs3psn2O8DdHCPTNP7wUing0lj3cNfeCOCrOqjYVaXERUvG9ZdoYuH/GgpFxG5u+2qdZcqWAdsdpGH+RSkrSDfnRQ9wLFV0MHg0D/diSqPO++8U3gC3VDIANZc5mW/mVRNtYZJypaGrpeYvj/qfyN4fzn9uCnXA31ZY/SbT5Cm7fPS3DlScEO2nMVW1nicjleAj9fGAKjNTMyAmbPf2mRS9ei3yi9xOD2AF/HhZJvSebiASFXcjh07Bn4O8q7nB4x8TPA1wDWXOmcDZxbaF6B5hEL/MrIP0AMPxdil4KhioEOBk00PugZibIilDQ5nXFiywsImGF6EtYW5rQqVpKHSSMdJamk46pIUCdBWcEY44/s8j6bw/0y2HrBzJfqO1mRr5ei3hyoPnuvBr3rz696hyPhXd1FSn4yLYM0rMgKAC5cAzX9Ma2DNsug3kFbXJk6oihDWP3yHyeQHj04PcGxsfMxlyRrOQQ6qhoCocUHh433rbR/9wF394aDds+54wz0ZUyVlJAi4CFMKFWZxvjspeoAStPcHeFI0apwaQZXHtddeOyiVB0G2j6kcAJhk4X3AOKj9FhcU3OfWl6D7dMfE3BDUaCPcibHlLyaHWE+Fox832A2qRIeH55C84QTDUORmuwDoQ6UdUhgqZNneCWx1WTn2Y8J7jUO7+RwG3GHTWcRgXPfBg+seTFZvGu9zeMPH288fsv4oMM4DpOuvjH7j3Ao64doP7VhV1W87JkkkVR7cgfjyyy+HaBGB+bxKIwKSM6Vjx5rD6TUekuT6dL662K1lEZyZdiAVh39YUoiuH68gzge+8pulQ1pyit6PV/0jqScAFp5CvJPZQM/C7J7JvUDkDfcUNS5ea9u4VDaESkL17RCyDzsp+4Pj0YAv6lAQUMFhgMaMuA8HKH/YDzOKGfmx25KSEj3PmdvFnWemAgPkMrP1gy0KWvUmJXvVHJqN+hCQxetNiD++BB2iU8Y7iBOBB93XtDQ66gA0wECME8YGn0MaKny822vtoBuK2F4DXvObRBYqvR82eXpA+Q28GG5sR72lxtyjXvDoFZiWmiYrV6yU9LR0PR2PZzlTu6zyMdrPPuPHY6mL9n6D0AvKAwFxuNb6AB2uZ8Yo3Mv45lcww0DzNDj+sCoIWyTbYX4ys/m94fSPJwW3I0TdwQDNLBYWIrkfNNl6gAPmU6AHaMM8b948/SBs8fFiOVtVhd2BME1yyQvG1EmfV3dYiuG5PkAPr99GJxcmgWFdALwY5gVhb03hwr1pxsM/iHbwGWyOe/3j0Ty/jlHogUGM8SjUMuWKyM7OlqTkJCk7cUJOnCiTlpZmSM6uKR2fxlU0s/sMqJ1gmw28Gzy5S06Dz+Cn9HvA74Hp3wPDg5Pp3y98woT4BFmGTS2rVq3SL7hERUapxBz89KPxG+dL0MG9Os73HMQ+X8VwJWieAEfiAiLjqfYYjQF3Sh37v5zg9iZAP8nunTv/72TsAY4V1wvIf1wotLGbjG2d0DahYwry8/FZtxhdQOTHYHnuuZfI75yzI+lDH6C9PToOfu9gcfB0Ywc2cuTHpeiHP3nfgUWaplgH0JI7BF/bdjZ6MG6qEJsaaC4eNOCfKg8wQ9rp3THIMSI4V+BTV4fPnZJ23hOoZ0hfDOcx7UO1/KbgCag9vN9A9Oqlh1M28/gAPdyeG4V8BGhKyPwm4bqFyyUaQE1rjpaedvnppmelCgsRN6+9Uq6/+HIhUHMbtUnSAcCbpOCn7eMDgqyt5jqh/t9J0QPuGLEtHB8CdFLubGnENwnL6s85NvieNJOizZOoEVQ5p6amysKFC4UgXVxcLM3N0EvTxhkr/t3QT5NCdeFg5oMP0BM42JSI9bt9mTnq8rXyaPM5+fHLz0tleyNOGhJ5bt9WlajvWHG5Hulp6g5TF3D4Ofg62PAMZtDH45G1TWyMhzM93vFogl/HIHrAzDYtKXmS2/IzklPlZN057/BZEt+1HsAkjEAH9mIHFvXSRYVFkpiQqJI0hasOqDy4ESXcnKTFlmtNbSVe4PoAfUGXjF8AAYuAS2qD5HwSEstPXn9eyjsapT3GCafp3W92b9VT4W5Zdbke5clv0nFiMSvLMLB2cvh//R4YXA+Qd8hE6rpZ6CdI26XB3gRuuoBDJpzJ5E4+StJRkdGSl5sPsE6U1JQ0OXHyhDRBmg7XfVSBOCAdvgMhs/k00T3A7/Ydaj0njxk442eTr5okbvlugT76+b1bNQ2/pB2SkH6mz5WQ/eIHDrkHyHp2MTP5KtwVFn2YcQYSN6SkpaXJggUL9KvciYl4DR4B+QA9gs4baVZKxwTnZgAw1Rqn2xr19TIVqzPzo1IksxUmPVgg5OTgouG/PvtTKWk8J62QrpnXyCaP3fuu3wMj7YFg1cdIy5tp+bmxpaCgQG655RZZsmTJsB8/at1nH/jrYef2Mw7YA15JJDgxpeM2gO1L296Ss9A5U/e3EMD8Nw9+Wn5v+XvlqotW6v7/msZ66QKQU0dd11AvNJbPiEvUD7aqKZQHrLU+ILbVG9L1pA9u06jfj2ddo9746V2gDY259rTks5qOFjnTWOuY2wUnsIRw+4nypJp5XvtiCp88NzdXKEnzTI9gU7yBOtCXoCeQdwjQ2w/vl3OtjcLv+M2OTZE/+8DDsk7yJQ/tWheVL5+66U7JaHO+nt2J9PvOnJAXdrwlzQB2muOZKoSPoZOF4vRANJg0A5Xhx/s94PdA2B4INrErKiqS9evXq3AVNlOICB+gQ3TKeAURJ2txQJJKzpEp8uV7HpbVAOVkhEOjQSMOBek/uf1Dkgy1BwerFTpogvRv9r4tDXEwy3NHkK+k/mspOsgnvwcmaQ/way08Z3ooKg8foMdpMNnRlHC56Eu1BFUW9Mdj89HcmBT5IiTniwHOqUiTgItGHARp3l836yK5/5qbFKRZCKXnF9/ZKltLDkq7Z0ERSbUO1hN8MW68iW2gAj24Lf795OgTG5vx5gurz/iAFiO6m9bDK5ZmOrorV66UG2+8UZJ0AVFnSdjHDGcTEDaDHzH0HqBkSyYkIHNxr6SiXI5XlqvtczYWAh/ZcKusdcGZA8IhQ/IAUZJ+cNkGqSg/JS9WHJBGIHcdUPy/3npZFhTMUYBnHTS/8+YLFABPcJl9pG1EhsvnLWM4fq13rAofToP8PIEe4NhMFLFumxdekz7dYq6RfVs2JVkIjaYZXShKhTR9yy234tNaO6XidCVspjtCzTXiCAAAQABJREFUnufhS9Chem+0wzBI1BWT+UoAzGUAaO4gTMLuwN+/7T5575y1KinHo14CNAfFe1GSTsf1ezfeLRmuZQdVGwTqH7+0SU5hgZE7ELlphUTGNx4Pwx9OQvs7xtzvbYvv7zs2E9kfNvzj7fKZyf9xWHdJwRxYnlGg15Ksgj7HGjDdlCfOrTAXn+/SSy+Ti1ev0Y0u3k9n2XP7VhzWE2PkchAIzgTQY6fL9aLEwIW/D111o9y7aL2CL1UaBGVSMGPynnHxUHysv/QqeXPz74T20B246jtapbT8pFy+YrXEgulZdiB/wMNSB6ChpB2gKD96avfAWFtx8E2P4JwTGS/3XnydLEvNlQVpuTIXbgv4uaG5SeeMLoCDL4lv05d68ZHaTJk9a5Y04ks2+sUW98hSPrNhwvR9/ol8MjCXgjN6+SjAmWoN6tqSoXe+f/2N8sBF1wckZ+D3BUTMtIuSNXXT2EwqX3rwk5JGyw4wOYG6pLlann7rFbWV5uRiHiVyNi67t7Ls3k3lO34PDL8HhoCe5H0CcyKk5pyIeHnfqmskFWEpmA+8kuG/onCl2v5z4XxGEJ65p7sb53gkyjXrr5bly5ZLXGwsdiVG6rz1Jegx5AJTaxQDnI+eKddfQ6ooHrryRvnwyuslA3XDEGPQv5IEVgJ1Vly69MZHytGS47rRheZ2lTVV+rmdhTmzdBIEg3GwLuwCkL4gABX5NCN7wCTosw210g3e4tqJl58CfoBLwI+eoj8cMY7nzqTBGunywiVyzYJVjrUSwrxSIr69Ks3trVLV3qRvnf0WGq6yKRpOwTkPNtPZ2TlSU1ujNtPevpmijzXBzTYODdEMWmvQyoKSM1UPiZASPkjJecX1kob0lIhDSc4hitIgDhb10TTD++CKDfLA1TdpmYykZcevdm2WUzjHowV++yo440iovg8F3/eJ9G/8HrAeIKOEuyxNGJdTgzwbA2mYvJ8Lqfnuy26Ui3IKJRlhPEaX88KI/jiEX7pgpYI5pejAYnY/88zyT2kXz85H7OrqlsyMDLlhw/WycP6CPj9eU/r5JqTx6FHj3VC/9F2If23nVl0c5ILgxlVXwhrDkZwJtMMl5s3Edf/yDbIwKcvZDo66uGX8sVc3SWk3dFku8mv7rJ3msmL6cfnk98BY9QDZi4uBBOerZy+Ru6HSoGASjzCGGwXmEAIYzvWYBdkF+iaoAB7Et5Zvurr2ZfA1a9b4AD3sQXaZxvIHgBDhlF6pdtj+7m7VOSeBQddlzJFPX3yHqjWSkGkokrPVQYbnRTUHTe/I7F+480FZkpCl0ghVKmWN1WrZwXM9KL2zLQRivZBeC+A9/SCLc+78v34PjKwHyJ8EVUrNtPHnOeaXQqVxUfZ5qVklY7caFRKYCZeZ3cUi/+VFKwNnoEeirIAkPbLmTaHcOEsaumm+gfg01B7wAhzyBsAOflsUfGv/bmnqapdULOZdnjpH/nbjJ2QW4gms7HSXJ+ELTYw38votjC7LuiwmX/5i44OS7i4aUn94AiD9m3e36U5DStJskwE022rtZRl2by7DfJrZPTDcL1IrT4ORCM58YyyKS5MPrbtR1mYVSjzCDWT74zWWwcVvLh5et3ytSt8sj6Cv84CZpyvZMzpPiqeM8AF6VMbaBUDqnCk5v71nt7R2tOsB+0vjM+Wvbv+EzIH2OAWVUT2hjDyIipUh3XSWx+vyVZA7DVfH58vHN2xU0z1KJ2zDtuID8sybr+hRpbznBplgkFZet3C34OnM/4Pocj+J2wPBZ0kMpmMo6VKvTHBelV8k71m6Rnk+EYBrUrNKzG5hFBzIl7yQNUC09mA5c1KyJC06XvXRDDOADyScjh4+pz4X//oAPbwhDnSidabDYNw88j/7dksjJGcy2OIEgPN9j8A0LhY2zOfTDq/Svrl0+Nx2cLHxg7Cn/tR7NuprIRmfx5NuPn5A3ik/3mfR0PtK6XJC34L9uxnfAyZBDxWkKenmYSFww8JVcuWsxZLdG6vScHCHqqAAHiWfUnjgZW953rQIlpXzFzkAjbKV570JZoCfb9s+DacHPCBN5uJGFErObe2QnCExLIbk/Jf3PiJLIjPU6oJ641El1K8El1I5dxreuXS9XD1/hX51hW3iouGTr74g9Wgb7aWp/mC24EvL8f/4PeD2gAH0QB1CwKTqgeZzXAhMgQnd/4JaYlF6niRCQGG4LvJ5CiLvGTA3U6Ap3i+P/vIZXTuhOo7SNIkOFwxnpWVJXmKaqk0ooSu5ady7ae34AD2C4TWgo7XGZkrOne1qUbEkLlO+BnBejSVB6onJT6PJU1qWp0C++lHa4OLjn9/wkOQ2wVwJE4SSSQ3E63/99VPSBIDW7eCefEjuk98DF/QAAdqkZ7JLuEsXA11wXpmcJ3evu1YKopP07TEUm3G+kPim2Qz3qW2vyNeeelSe2vOW/NE/fl0akYmHiBlRrQFolovmzFd+NrM7LSdUBZZxqrt4QOtzH6BHMJh8VSPo7S8+gi2q7SoxFPTEyZcAzksBzrSyoJ54NHkpXFkEaW56ofnd337i87poSDULpZIjdaflBy88JQ2QqLk93KsHNEbQcl3GQBE+zdAe4CebSDT1CkcmNSdQaoa++dolq+XqhSslOyJOwZlAeoHkjGL5Bsdvb3IR+28f/Sf58a9+ofb7fLuj5Ezg5WVk9eQnp0tRVp7Or4Au2pvQMkwn1+0MH6AHOahkW4d1z2cgU71bckQqG2p0ESSvN07+z0c+r5IzpVnNE8x157OPug98rhL7yoR8+ebHPy/ZLc5rJifAnsbT8tOtr+iE4ETha6aStQ+uBbkxvjNDe8BUHAbWwd1AAKZKY0lKjtx5MbYnJ+dKMuw5aX1BUA3wvZuRAgHnSjuubeVH5HPf+qrsPnlM3/CsrD/+8Cd0QZH3RvpmiPISIqJlccHcPuDPOmYCcU771E8PBDMC78lsZutchS2ZXByhmdvn7vqASs60rOAvX3DefqoZWhRBNRQhnBJGEipfHZsvH7t+o/zDlhf0kH9+x3ArLDvmJqTLDRddqm1mWp9mdg8EswAF6OauXmkD0qoNPbqHQEl+pg6YAMo3s0vmLZGVMJ/jjsA4SNHkdaYz4j2FAKos2uBiesiPXnpGNm1+XTrwqse0LCsBeutv/vmXZWlcVkBCtjLoWrrc+BRZVlAo71adUBUJ56BW6qnTm2+6+H2ADhpJjruXvEzHcEoDNKc7jLM19NhQMAjB+U9uvk9uyVge0DkHygguMBAxOM8F2QfBkDFIk4qMdyxeL3ubzsimg9v124fUSb+I7eBt3Z2Sk5ym0g4Z3avyGFyr/FRTuQcoIXdDhUG3q6dbXbvncxFYqbrjORwkSsUE0yRIsnNSMmQRjgWdm5IpKZCYYwDmjA9FyCKtQPziNqg0Hv8XOV53VjqxKEOBhvsD3r9+g9yw9gpZFpcrMb09KMcpKLg4nn6X0hMlF89ZomW09bapWR7LV41McIZQjZmiYT5A9zNwBGcvQBLMqB4oxtkaxwHQ7DyeKsdjQ2/Fmc60pGCYN08/xQ89arCMiHQE6US09ZJFy/F5rO0BUyYu0PzilV/Lxptv1XZ2R0b4AD30kZj6OYhsZFRzozxcCy9ZLRK/3NEAYD3kCPbI8zPzhGc258RiIRCTgUCrc8TDl6bOIMA3YzI8+/br8uivnpF62Jl24C2OZVF3/aVPf14uK1iCORMtUV0Qyb3kNsWKVSkaN3Hg3UuXrpTX9u103mLdHxBv1unm9wE6aETJFB5WDcQynOB8+Gy5FAOcKUUn4mS6j11+ozy0/HpHfxaUN1xZgULH2IMmSmFKgU4KSiEkTqqqU5Vy+NhRWbR4sfRiYrpRTgL/74zogQj8MNvAX6BrBkMQt/UcDTB6QWKqLMkskHkZ0DVHxKiumXH2dhngH7dIvqnVAlkee+VZeWbr69ICSyJK5dRbXzFrkXzuvg9LEc6Q4ZkcET1B4Byi96188vDcmAzJxjnSFZCiUdy0Jx+gQwwxGQL8pEQmtFc+HhtKcCbR5nPj6ivlfhwbSsmZ1hoExElBaDylfagG5VR9pbaLCzh8FrqcXLaYw1Nn+bx8YHUnxQP4jRjzHnAHm+BsQGs8QN6IAp/oZqusfEjNs6QgLkWSeqNU1RFIb40E7+gcwQTg+S+Hqk7JN3/0fSltqZHWWESCeCYHVRqfuv4e3cZNM1DW04fnnKRWqrreeK6ZJCDNZUtWyouHdkoH6qPE7k3TJ/M0uJnxAB3MEzbYdClFcPS5WELJ+ZgrOROc71lxpR5+xAXBSQXOaA/BGabQUib18v3//JF04/WSr5aUno+8u0/dlQsgPXOS4CGVyV1G50TzaQb1gDE8Hxl+3qq+GeLp8ry5umU7PTLO+WFnpDc984AYRNVZEybCz3e8IY8//7SzexXoQr6bD8n7s3fcL5dCh8wzORhmIO9OMS1noD8EdH41qCAhQ9KhcunohhQNaZ38Pl1pxgO0DWwoRiFYcaGEtsSlZysVyJIBzrdBcv691c7JdNzCjejJQWwvLm4COAZw/vPvfFuasSjD56A0VLx7n0oyn/rIw5ISn6bPExUd7cw5pOFEm+4SyeQYqMnbCo5/S029XLNqncyJz5AkAGIseAfBAXAmn5Co5gPW6voGdwV+7dH/J1tOHZVWWGkQTMlzFxctks9+4MM49iBLdxcynODMeozotTItLJTLfJSiY1DX9Ti69Jl3XlG1o9O4UDmmfpgP0BhDYz518ceYhTsEaUP81u7t0g5W5LGh96y8Uj4JcJ6MkjPmg0AtLsW99fKV//y+nMbJ/nzlpFqjZNc+ScePy1c/80dy1ZpL9KH5nNGR0X34254dUT7NgB6AguOCp4xc6Cx2U5LmxRTkC3ujtAxck2mCdLKz/Kj8889/LCeaaqQdm6GYh5ZNH994r9xxxQZJQGaCPMGZ5AVnJ2Rof9keAhfrsTKHVsLUST1jAboPW4JxAvfwk4Go1uDr0+Zd27GrqltSwGBrsubIp9beIVkYX6o1eAXyjeaYu4w86CLRCIIzJediSM5f/wn0f111+uPCV8JSgHMmwPmPPvSw/K+LLsFkcVqt+keIJdRDM+SCxSK3AUNtjpvNdyZZDwzEq161gzXdANCbl29p/OFvgfv4r5+VX2x+TY+27UYYpebC5Ez5i09/SpZnzZYkCAcE0kFRMKOhfNZrwZyXfBskr1d11qp/pGA/qHZNYKIZB9AccJIxo/p5Tw84AbisA9/Y3SHvHDigdqI8PnF1fI58672/r+Bs52swLa9RJePG/gq1NO7DGDgfBThTci7trtMflwRElG/fJ3kA50/c+UG557pbVP/MRcKQZOV6IjkBrM88wb53ivaAl+/5CN6xZRzvQ6VhGNmD/MDjAo631cp3n/6JvF1ySNqh0mA458n9V1wvH7v1brXQiAH/sTyCKvPSb3XwnsQwkrn0Wxz9JMYxjOVwYZBviYcqT+gGrOmsf8Zj6psC3RlJxhTquhxE4bKZ4HzsgLS2t6laY1lSjvzZnR+RHPQSj/a0XzXLP2qdF8yZoQoOSmM65yqk/dqT35diSM7tEO1pa9p88oyeEf1JgPMDt92lqg6bIKGKDhnm9kvIOD9wavUAxjKYZ71gzLhg/uA9wZdvlFRpcD1mR9kR+foPvyeNAGaa1FEvnIYzFT/yvjvkvsuuU3M65mF6Xpu3bZFFCxbKrOxcXSA0qTxc57EdynZu3QRmLkJyq/ip1lrZdnS/nMHexE5MRKabzmRYM52fsc+z6cB7QsgMHGW6BOf63g7ZBXCu7wQ44/XsogQHnJdE4dt/SAN+nDRExqU0UYPrM0/9HXTPkJwBzjRhaj1xRpqOnJQ/+sBH5YGNdzm6RPc5J80D+A2ZlD1goMc5wYsvXFyLOdlcK89seU1efPstacHqOEE4EbrmtUWL5bN3fUgWpOZIPKRohrcifWl9lfzzjx6TE6fKFZi//ZdflYXpAGm+8g1ArNfaoRYiCNhfc0J2lx2VFhhEM4z1BBINUN5UjZ5xAB0YKBtclwsoiTZBciY4N0FyphH9YhwG8ye3f0SWRWbpUZ7UOY8JGScOtnC2HYS5IbW4/uG1J+V4e52aNlGtQcm5/SjA+f6PyoeGKzmzAp+mRg+E4x+XT4YCYgQ9k6pNciU4n2iplT/9+69JHYCZC4GUmuPwlva+9dfLwzffLWngOwIvgbMF6TdtfUN++utN0tDTIZGYOJSaa+vrpBcAPRDxcdgOSu3tLA/3bx1/V44D8PnFeq4NGQUvXFr4dHFnJEB7+ZmMpoyAnjhSdlIlZ4LzKkrO7wc4Q+vMk+nCdZTNgWEzhLcxVoiF9VM4pf1GpP/W60/K62X7pROThuDcXnZGWg6flPuvvlHuv2nj8NQa1g7fnVI9YOxi7BPceIsPDg93T/VFI67/3vqq/OQVHLqFxReqLGjHTCuNL378Myo9c2GQlkJMX4eJ8vjLz8p//89rCqTRqFTXcOYvltU4YIkbYAYiBWfka0FdJe1QaRzbL7VdbbpVnPXPJAqHO9O+D8gEZGTVk4Gx9pcVS0VNlQJxFraSfuGu8+AM7BsbCjWTvGH0B88qMCjW/KQB18/efQ2SxX61O6W1RiMk51aoNe679kb5wkc/pZMmEumDixibh/FLncge8I4x/cpGHl7yxodrpyWnhMqFQFoFff2J78i75cf16zyMpxCwZvYC+fw9D8ncpAyJ7cDh/ii8BZOEEu7fPPodKWuu0cO5KPwQvG+/9nr5+K336CYThgXaF9QQlq/WU+BZnoC36+QRPb1OpWZIzpToZxrNOIA25jBmIEMcLC2WE3VVapGRCvT72G23y2JXcgavThwFMSQnAvhdwfmJ/a/Jz95+RRcE+YktgnPzsZOyJmeu/PHDn1JJhc/IPJytQUVN3DP5NY97Dwx27MkrBEEecrS54oh8+/HvqTldF8CXao9kqDQexseJ7776BgXeKDAj3+S4g/Bp7CB8DDsIeaxtD/JTyqa53R9+5MOyrnCJgjPN7Ux9EqoT9E0WE44/DK8e2SEVLfVaHn8wZiI4s4+mP0B7uRNMZqDFATdwPgXJmTsGeQLcvPQc2ZC9VtUaWKQem0VBNmIohLYyC9ZfVK3xs3cAzttf0Q/Dcvt2A8C5EeC8Kneu/OCb/6AnjfGxI3lSHY5wDLUZYTDVD7WZgynTTzOEHhiFAfCyf3DNBEvGsxrOBaooKLk+u+VVeeL1F6QFE4Bp+HaWCOb7C6g01s9eon6COS06GpHvbx7z7CBEWVykvqRwsXzlY3+Ic2oiFMxZj9UHbx/iXKTuug1XacNZ2XJ4r9pVt+KHgWtDqF6JZcw0mt4AjRHtw+PuvUqiZIaKcjl9rkp64eerl+rWcO4ArTWo1mDnDIYpBpMmwFh9GhQIDe1hWrfNVN1R5/x0yTb58fZXMXlwFCTio6ubpONYhSxLyZVv/emXcFh/jLabWQnOA9HAKQYqwY8f6x4YEn+5jQmXxyRYzgGmoU28gXNJU7X82/NPyVbofGmFEQGJmYccXbVopXzy9g/IvJQsXRgkoFJq3nbysPzfn/9QTrU3SHu8c/woz3n++G33yJ2XbZBEMBfnFOdWMHnb1w4IrmhvkiM1lWr5wYVI/lh0obEhsgYXNa3vpzdABw2dvsIhjAzJw/Z58TwBZVaXEwja4Es9Y4BBXkYKKk5vB4rvk2c43IY8naikDgVtOrZNHn1jkzTyABCERzW1S+XeI7IgOUv+7stfk8LsfJ1wOgmRp89JZX0aEnQzpIcIyuvfjmkPhBoaSpX8UgldEkGWb1JmX0w2I08bhZNcmZ+2xNwVuL30sHz937+jVhrUP7M8Hg9KsH3/5RvUSiMakjHVDc24Hv3V0/KLbW/oR4lZBi04Zsenyjf+6E9kYTwW1pGf4Gw/CNYWtsvax/pbcWLXifpzsr/6lFS0NWDreA/0345em+lIwWU4oTPjL7p25hAHnOBMEOZFP5mE4XD0V5tfwf7rF/5V/u/G3xfiICVp8OOEEm2df3Zim/zgrU3SjPaxrXENAOd9AOdUgPOXAM45AGc8SGAyGncjLdP7NH16gOBcj0E91VqtQDwLgJiOey7IkSjhUgLlwEdTgmUgeYOuS2QPAjG/pP34r5+W52AW1wreYl6WsyItX7748GekCPxFlQV/BAjkR1qq5QebnlLLCh6KRMCllca9l18nd161QQrRljik7W97t7YPvyY1Xa1ypPa0HKs5LTWdrY6+GwxsIM6mzmRw5vPPCIBWrAIjEYxDgbNyLhIRsLkavf9cuXzvzaflD669V896psoDWcedKN3T1nlb9XF5/JVNUg8zJ0pJUY2O5JyByL//NsAZZ/YSnE2CYkMnor3j3kEzrELyMXm0FYP7xG83yeZDexTMCqF6+OsHPiORQGLyAHXD28sOy6mqM/o17DXzl0oCgJqgSXCkFEx97wmoNL79H9+T4urTuhjH7uSBYHdcdZ3cg0OOeKh+NO4JmM2YFzsgZX/lse/o2kcXkIN1zY5LlbtvuknuXbdBUnDP7d2hVBosm3XTaqo1olsqm+rkyLkKKcGZ0Q0RXZDk8RkuxBvj0quS0/kghsw4mhEAzUHn4Jv0TCYh05G8jMAJQCZqhn5t07FdunDx51ffK1wsRJbRP3cDZSqx4hBEA/3f1R6Xb/z8MWmBMbYetg+1xtk9RyQLYvVj3/4nmedVa4Qoww+aPj1A/qVk/MbBnfLasT1Sj9MKSa2QpDft+p3cse49+sZXBuD9x5d+rnpk6pBvWX25fHj9zSoFk/ebcD257Tfyk5c2KVj3gt+p0uBRun/zyOfksnlLVWqOQBjrK2uslqfxZRRuPmnlayXmSDyAe1EmpGwsHBby6yjgYUrrXiGBbbN5RhbnD0Mdduoerzkjh3Gof1VHs+5Q7ICYzHmnkzHMXGBZM5GmN0BzsDHwdMgAm7dtVWsNZYYwo820lEB4yP1vDu2S9Vgg2ZC3XK06qO4wMj4iXw1IlnjAhE4CLlpSrXGsp16+8V+PSS3VGigjGpIzwZmbBB4HOM+n5IxJFDwpBlmNn2wK9gAwUA8Mom1wExiS/MfxfxvnU9wEgOb9lnd36jkZjCcgv/Lu23IXALobecoBtq/jm35PvLoJXztxgJnntly5GAuBd3xAz23mdm2VdIEOpQD7b+HcjYN1p9Wkk3UlIP79kLI/fsu9kox7qkDIn8FzAUEK0BSOOoD2Z1sb5Wi1uxAIoKbKpDMEOAeXg2JmLE1bgOYgK4PQxQ0vA2aLCzfqTAueU3XHd178uaz82FdkFu4NoK1cy8/ywhITD0RBDSI478fJdF/+8XflHCRnTpa4+nY5gwXBTIDz53Fs6AKAMyVqk1AGqsKPnx49AFZw1ho8j0O+rqyrVjNMVce5DEqHUje3am+rPCy5Wdny7Seh0oDOlwdqUWrmR4/vuvI6+cT77tUD9XW7NgSUBuT5b3zw9bFfPqPbq6nSUCsnpP/yJz8nlxYthTmn8+MQCpzZPPImwbkJs6mk4ZwcxheJzrY1wpSvR3naeFfZfzDzxPPMM8U7bQHaO4Auv2oQmYEMZTfmdUMCDpmHknQdGPkPHvuaPP7IV1TFwQlAKYLxzMvyhk2W2W0Edc4E52JIzl/90XelAZVB0NCT6SoAzpScP//gw3Ln9Tg2FL8gbAfm2LBB2q122M33M45tDxBcaR9MkLOxwq0sLJwnUVvP8yEBmtJoZVe1pEZnyfzCIok49rY2jnlpMvfs5tdk34H9qr7juc2Uepdk5MtnHrxPrihcqptQyE8Ec6pIvo+FwM3F+1USZ/ncQUhzu0/T3A5WQ7TwoE5b24Z4L7GtzEPBohpqDOq4uRhYg09UUWXC5yIxXVBWDff/nO8BDMf0JQ6+XuAEgvKaVatl9749+sBkDhIBjonsnrdGZCSeAUAm/IunvyPfuPdzjiTNxGHyWN6AywaEKtxNoEW5aYC/8nZLhXzn+Z9JSRsOloFOMBtye9WRUomva5MP3nmf3H7DLbpLkBPAfiQCdfmeKdcD/dmqU0Cox2lAr+7boqC2asESWQwrifzELEmLT5T6nhYFQZOST1SfkaV5WSopqxCB3mAcwft4c7WCLfmN4Hp5/gI96XA+wJb6ZM4Pqk3+B7bN//78zx0pG6+M5DEuHH4aW7XvhLkdv45C4YDkBWeWa6TgjLbzQP9dZ0qlvKVOGsDMtBpRvnUTKv8yIy4eeuQtw8qii6jwFC5T+BxTKmZaAzRHgoNrV3JCohTOnqPHHzKO4Kxfn+cgBzEI8zCYUgAXDffi69g/ePs5+cLl75d0VwJgmv7IeIeMSKITkN41xAmjXpGSEm2dCc4H6ip1QYXmTtVHS6WzvEoevvs+efiDDzrnazAvCrPyeevT9OsB2r//6Heb5M0je5QPX9mxRf7y7o9KOkB12YJFUomFQoIkL0qmB0qOyQ15K/p0BAGRIN0DZiHvEWwfgW3zB9bC6gITgGoy1Tcj/3NYCPy3F59Ri40e3FNCLkjJkN+/7yG5ZhakbKTlmgfLUXBF2V5iPSyL7aaw8duD2K7d3YwNVl0Drv2EA2mtYgYz+rQHaB14MIuZ/hTNmiNdHZ1y+uwZ5S2CtCInmQDc4DrKhJRCyCBkugYsGr6wd5vMyciRuxav128SckE7HLEcXiyfF/0oRni6VwCkGQjqQBgP3P/iT/9BDjVUqqRBfV/rWXy2/nSVfBzg/HEDZzePZvT/TOseAJYqOFfDvJI81NXRIq9hge99V94siXHxCq78wghVY7SQKDl9StdOMmBVQSLvksjH1C0vTc+Xr37kM7IQH3Cl2R3j9dxmqDS+ZzsIoVZjeto2XwmVxu+9/wNShB8Envdi4KyFhvjDedKEQneVH5ajVRWqLqG+mcDts22IDhtE0LQHaDKhXuAQ8InSonnzpam+QZrbWwNqAi8DEUApPZhtMScHJwBXxR/HGQUFs2bJ1Unz1IgcwnVgIjilO5MJ/KyLNmchQby5Y5s0NDbKe6+/UfIjkwS7tDUv6+Qk5BbuR7c8JwdqK/XzQWxvM8C5ofikfPIuSM73OZKz/cgg2qcZ0APkO0rG1AuTV8iTW4/sk+sB0BQ04na/rQBLXuOhRRX11fgWZbX811NPqVBhPE1+5oLgn3ziMzIfH55IRAZK3bSF3nHisPwtdxACmO2Dr7qDcCNUGpdskFTkNRWIt8vJoyxfJXTccH5w/WTHqcNypLpCT1jUHw/Ua2+Q3vy+f3A9MO0Bmt1ABjVwtvvlixbLwWNHpQ47mLx6McarxAEmVrtj5GU8GZKSAE3eHnv9eYm/9na5Im2e0BTVrDuYl8SJxVe83edK5atP/It+7ZhM+m+vb5KvPfwHcuOitQKhSLeTU63x6FvPyQvvvKVmT2wrwbkR4PzBG26VTwCcKU2zTT7NrB4gz6VC11zr0TVXt7dIhVTj1MIV2PH3rESB+SDsKghSGv6z7/0faWhokIicVImNgwkQ+CYgcIAxIwCkBP165PmPV56R5za/7pzzjMq4cLgMUjYPRSqilI28obZr6yggjjzNOdGKi0LGS3veQrmdzrnNiNODuqhcdv2ar78/bCvS9iGEzWSaGQDtjrABNcc8GYzf0dIqUegB6udMDDZwlpomObr/cACYM+fNkbTZeSrNHMahLk+8+rwsvftz+mVvdiL5yngLfK5HJn7jsX+RYx010gRQJzNz0efrj35Xln/rn7HYmKTS80/3vib/vRufEMJEY/7205Ccj5+Ua5avkS9/9I/B5C06wcaST63dqN6nSdQDFCpWzHd0zTzCU6VeuPuOH5GbFlwl6bGJUg3+MFJdNF7puCgIllOVhMZhgMk/pZXlUlSYJdVYMPwmdhAehWVFchHMNcGXVF9csWC5PHDJdbIA4MyPVlBACccbFFooNfNQ/Z2Qwg9DauYiI8Gf7VBCpUOWnseS0d1mTSWHPDAzCANPvrGrtKREWhqbpK2+yWFExBOc1bYY4Fz1zmHJBu/TTpQ7rOqOl0vDqTOq9uAr5x7oir+//Tn9HA/4WCeAdSQB+t36UinFweVkYmNS1dFhW+Kv92zTT1X9Jw7cf/StF+Wsa+vcegY6Z3wNZW3mXPmrz34hIJlTx8gJYZI+eXg0Lmuv707OHgCbyeqiRQGTNvIReY/H4xp4U+1FniYZ/3JxeUlBYUD6JWCSDxshBDy5/3V55B++KgcaTktqYX4fVQjzFwCceZYG/ca3dNXvVkQ+JC8TnF8rflf21lXoQrqCMziTkrNebvr+eNVpuf83XA+QB2YWgVtaW1rk+LFiiQIDRQJdu+qaJC7d2TdLgK7GwhyZnBcZkcxKqi4tl+Q5eSqhUB/9IoB2dmyKfGjN9YGdhuRJ6pWf/92rer4B87vZtSyeaXCiq1F+ehCS829flIYUpEca6v3KS07KRXPmyte++rf6BeNDrRVaN6K1EJZtbXF5nzHDJ7dho1LW8Fsx43Jqf6PvCa7ZyWmBtQ6+4XkJmCqXFKyADfKz+oZFPTP5aT+sNdoudaRVZmE+lskrJSFJPnn/hyU7K0/+3xPfUxWEStYobNObr8rRkuPQZTh8xHD++JMIulVnzjpvhABoI2+TmJ7nplO3TH339uMH5WxUp0rOBPAegrNlhKsg7bn3vUPvgWkL0F5GsW7RCQBG2rJ5szIzX+t4fgCZKxaKPLpciOFlUgLzMh3BmhICJxXTUfdGkP7h269Ixqw8uSVnpVp2kN+RVL/SwvQsRwkuTyHjOQi/gjUI29KThrObERbT1iml7x6QuOgYueTm6+SFg9sVtJmXgMwiApPQc++W7DuTqAdsuK1JPPI1QDZ2COC4kqf4hrZ+5cWSn57VZ52Eech3CeCXQnxEoq6Ndj4O79XCmuN//+r7sm//PkmF2s1+tDUB/izKWqg8w4XBNtRDUMVLoHQgH9UfLDcRdZPPTSXBZiYmJ2k+K498zstIpXDc7z1zXA5UlulnrVqwktKFOojMfZ7VMrkuwdqnoffAtAXocF1RerwkAHaRYFAyKXmwE1J0Ykqy+hU8EUiANGBkeYkJ1OwpL2ocDe9rYWv3H9BHX37/So0DZssOfMT15Lkzep6HsiXKcXlYaF/a1NspUTExDvgCnEv2HNAFmfs+dL/EZKTiTFznVZYSCwFf24AC6NeJwDDXT8enydMDOi5ojo2Pu0amDTRe4lsazdby8vLkmvkXqVUFDyYKJgoDPKhrZdFC2X/QBWjc841r++F9YF5IzOQRpFMwRRwl4v1nDsnyvGXKoxZOgULLQ71FOGDrg7feLoeOH5PNpQc1D9dh8F/b3ac8lM+8tG2mtvvlA9ukqqtFrTTYjk5Puyk/6xnkSDdoYqU+he2BGQXQLVBtFBcXB0CYk0glBDAJmZc66fjUZEnKSJNq6IMJ0MBKB4zhiUlO0PTMR25mPKWKShw0/sc/+Zb83UN/odYZr+zaqq+iOjmQhjyoef7/9s48yI/juu8N7GIX9+IkDpIiQRK8RFLUScsURYUyfaTssuXEKbl8xHHKKVUlsV3+I+VUkn9S5ZSTVMVlJ+U4lbItl53YiSPLtmLHli35oKhQikjxkEmIJEDiIAgQN7ALYA8s8v28mTe/nvnN/H7zO3axWEwDs939+vXr7tevv9O/np4e+dwU1ozoaYoGSpieDQcEztwkPvFDnwyjExtt9o1cLgYGEw/yxi/U+EDPhCq9cddeA9bHaX9RG+83DIAwF33Na9Mf2XN/2Ltll60TM9OlT4sOoASg9+zYHUZfTnjMXkUD3E8cO272xE3Alivks/zAOjVgyq4O7IhycezSeGSH3iD80Z8Im8OGcGTf65afB5Buc14Nq08qlzcC37h8yo43RfaszHdWjQLUV0q62Xk6Q+51WcN+YHihSTWbv5EGpO4bx31ZSxvuMFoubMPCCmAsk5OTYWLblnD5pnNh8sRpm52w7qfFvXDL3do/7ZnSvAwMfjYe0Wd//u3nfzX81Lf/w/Anz345zGhm7XbngGrlKB8zqHm9LPPaSy/bz9xPfvKTYUzgzCDh56dfYm3VjfpBkPPB7PGE2vxdKhrw/sFsuPFzU8an31nW+NBd9+scjF323MFtI647dgPoYXdsoVs9sSGzU4kyOwC8H77/Aa01bw1/8819ZjuWRxOGv/jql8OvHf4do63RsgUZKIebw0//2E+EmwXOONu+KZ/ysD0DWuIKE2f5A3D+ml7/fuW09jbr5yF1MjAnU+rEktm60xp/OBq4YQD6lVdeCRf0sghu44bEQIsqxIgx/HNTk2H7PXvCyPaJMDs7azPZCa0zs/TAz7qiA6SZrTx3ZH/4mf/587bpn5kMho7x4ky2/G2btoSVl2bD/m8InDVgfvjvfTKs37AxTDOIlc5sCtunGB4KeX5Fk3A0MKA1bulpwPvMQFHVsyUNAfOeLTvCh+98IKxRH3OeBenOG7fCgFYGwC6Jpw+/HH5OD/tW37YjuTGnNoGdfOLb/3Y4d+p02P83+5JlCPFjn5xsd/pysmTHFjrKwbYo680DB8Ktd7ynBaiRPRHk4pcb9julDH/yylfCO1rSmNGsGXCO2MXZuIXWwA0B0Cxt7Nu3L9MlQD2xvgKk4ZJhnrk0GdbctCWMySgxTDbjA8TuomA228CwX3jztbAi1qosGl4uZlIMrFcFztwInnjiibBeM2cGEDOr27WDg8GMY+mEmQppOC8vjSbE5u+S1ID3FX03r2Us+vzmia3hDi1prFc/M3MFhIuO/rZZs/qeJYrf+Pzvhd/nkHzNXMeUhs3g8ODd9+o3w8fvfSz8wdXPZXZiNqN0m7WrXBxlsQJBvvgiTUnmoE9enLJ0JgavHDoQXjp2MPCaOfubLZ8zp3kab+E1EEPJwpe2iCXwsOLKlSvh8uXLoW1pQ9YWg7TNdEXD/hhUXBg4cQYMF4bvzoPGLyL5Aefjbx+3szYUzAzfeFKZ/Mx9Xcsa+B958olw89679NHMBJw//tAHDaTjQUhe4lantHBFTbj5Ka3xlo4GvK+83zfvnLBfQ/Q5O4ZYZqhy2BkfZH1DX0j5+d/6r+F1nWcxL3DE9t7RevMW/YpDPnHWgr9xaH94TADNxCEGfMrZNbY+vPfB94fn9u/L9uLDx4PBb9UMWsG8Q4YoXNTj8JkT9quQMLT2DBAbt9AaWJYADTjPz8+HQ4cOha9//eulOsRAM5DGAlMDhe4gOaWHhiOb12fgTBoOn4GC8wF5/LheYkEGl6Yr/nCPhW3jF+/xY8fs5ZOHHn5PuP3uu2wJg7JuvfVWe4DDXujYkeYXdORQbFp0QiChcUtDA2l/WX8rjM+M2W0En/6ETiearSjIzR0g5Ffan2tv/S9/5r/Z17XZlskvK67v/sT3hr/62jNmi7417uipE+Ez/+9z2oI3FUbHtNYsh2xuBt/1+MfDY+9+LLz42j6TTRrATjkSZ2fBQHOnLFYf7h/8iJvYuT0c0gyaPOxvbhmd50h9pZO3cQujgWUH0Myaz549a+D89ttvd9UahxixJh0bmQ0k5cTQ2dkxPiGQTiXJvrMBRyZeepmampLVX0meattUhmGSd5c0kw9zs+Ge938gvOeRR3Kg7+XhZy41fEgMEtJyyWzrSF2n/afO0/iLoAF1kAPwRi2hWVg0eioO05fQsClAmNnw29MXwu//1Z+F//3UFy2u9z/sxLkP3nZ3+NEf+GTYtmFHuHLiXPjLQ68kS20SgD18WZ+3Am2ZHJj9yKesk4ePhg3vHg+b120Ix/UVE7sZKO2gvmYPQGPH5I+vy7Mz4dzsBT13Ub3EcOnKrPY4j4hHGQvO9jWLPJ/u3igkN9EhaWBZAfTMzEwAlN98800DaWbRVQ7DNCcjOzcpkE7XpGNTxND5SXr5fPLAhR0es9MzdlzpVcnGSI1ffCPpTNkA3GXLJ93KUuC+D34gvF/gzAwFZwNViTnQT5JsBp4w6a94GGBWVpreeEtXAxt0wzewTKvo/ez95zNnZsI8XH7+0GvhP/73T4djF3XUkGjYHSfIfc9jT+i7f3/H3u5jN8ftesi4SvuWmTjof+LSQCY7TTt99oylI4tdQQAuN/ozUxd0zMCFsF07OWwu4XKUhihoNmsmntKcpfEXXwPLAqABYsDz8OHDdl26xMGHHRyGhyHL138bTOcF0gwsB0MzVjHNT8+FmbmZcOmcZiEpbwuEyZ06Jbosf+HVUgXcuHfddlt45EOPpMyJZ/wRJRvUSZYopQleLxowG+pSWQCQ3RZTGn2/9ie/F/76pWf1QdVz9sII4Ltz7UT4yR/8sfDwu/bajg/4p3Vt23GT2Rigy9QDf5tOrKPMUxcv2FKJSCbnhOKvzRy0D1ScflWz7hSgfYmD/PCaQPzUQcsBN/FmluzqWXT/ugdotsGdPHnSZs2nTp2ybXHdtJgzTEUcqJlJrx4b1zGNY+GyZuP85JtlKGg5QRObxKA7CHdcdd8ySP7q1avDI5o5m7PC80LaZljiAdeNtYQ/n7uJLQUN+M29k5EAtAAkpxoe15LGL33618JzB1+z/cb0N7s9AOd//TM/G3av2mCHFpHnsq7njr4afl3fCZxLvxKBzfjs+Gc+8VPh3/3BL9rsGDkG6BrZX/mbF8LajZp0iIaDzgz94MmjYXzb7jYghs9nzUWQTiQ0fxdbA9c9QLOcwcUMuo5rw7vUeJ1+cXY6cGHMRktnwHVkl/Eg/s477ihLMpqBs0JpNRKa/jJpiWmW0Py5rjXArHlSI+7Zt14Lv/A7nw7Hp86FFdqlwdZK3i78bi1p/PB3fn8Ag0fV//Cz3e6PXvpS+OU//B/2Kaqt63eYDrANLmbGz515IWzZvDmc1QQjA2gB8VdffjGsE0Czpxl7NuAW/fCpd8KdALRJatkZcZtZN4aXaubae9c1QD/11FPhgoxyelpHwWTrA70pFYMsOgzVZxJm8UWGHuN33XVXrRw+LiifsA+gWpkbpiWhAZt5quMAQ2GhmSVhe/1aQPnrf6q9zU9/MZwfV/9q9PFpqV2aNf/jH/qx8NAtew2cmRnzGTRm2b/wO78enjv8epgSP4DN69285m2AS4sB6JdeCKfOns7GADZtp9RJxpmp8xamXuRhBn349HG9oXhVs3lfjEtszexNPI3dodil4a5LgD5x4kSyt1nGdMUeBLpJuV9fuf5TrpgzoeucATNX/P7cli1bOma0w2U07Un8dtZm/a9dJ0uZYnaSghxzBmbCHKp18MqF8B9+M1nSmE6XKdboQeDf/fAT4fsffzJsXb0hA3TWm5878lr4pd/+dDiiXRWX9aIKD/p4weXJj34sfGPfKzabZrmEB877jxxMJhQqELvNbDUOi480ZtwzWujWx97siIIr5GE6oP88h8nyDqBkiarvhlFg/dKuO87rDqBffPHF8IYO22dqkvRt6jMa+nCey4E6L4JUzK1so5Fz5s0xH9Oa4s6dzmj1TaRlpMqA1wuGVi3a2YvltXM0lMXQAHvq16/XaYi62XrfuU0Biv/y3/98eGPmnIE1M+TdaybC9338ifADj3zcTjJkSYs3+C7p+i3Nsv/gS180EJ7Rq6zsJLpj847wT378J8KuVTvCz7/5i+HNK+cNbGlbUl4CznFbjS55SXriA+oH9GWVz37l8+Hl1/XwkFcU07GU1DfmTsNiyZwnZ4R8wFi78ORzNLFOGrguAHpubs4eBPLiCQ8EM4O6yo85WUNsQJ1am6a5/fgA6pTF59DlPBSMtKQCxWqMj4+HvXv35rOKKeOj+lVOTFZPZtfwVDTTeJqn7FVaXHC670Hnlw4PrMfGNN0tuOMnT4R3JrVLQ8sUzJrvFNj+i7//qXDHxu1hXHHs8KJG4v4LJ8K/+Y1fCfvPHA+zycm2YdXMfPjejzwRPvnok2Hbqo12eNLenTeHg0cE0PGkxI3KDCKRWaiGlYPJnbykrXb7X9GUnIeWSQbqkIZS+0wmPvNalZ6PBorboslWBta8cy4tP0drIn1rYMkDNFvmjhw5YtvneCGELXWYzrzA2WwhNZCe7CIzxnp6K9pgKxellqcCzk9+25Mt1igU13WFdoi0ljkiJm+XBr6XEudzTtjK6J7e+IukASEVz0JW6aMLK1PUcvzcsXV7+LYPPRq+8NWnzf9H3/ODYZPWJsYEzsyuAec/fvbp8Cuf/W17g3BWcR4c8gbhP/2RHw9/6873BxbKeIX7staQ77v59vDFIy/bmnLcOjOZyByLdkES69DgLeWai5hI52q5KLFFzIdqsOQzNLFeNLDkAZpDjo7pFWleQsExU0kgS5HUmrCRqz4aYBqqy5tsHdG33HJLePjhh22w1uEfhCea3AwipslbVwMyttgisEdb1khvpDMC6bWr+Urw1eRtPTFzOP/PCJR/Whdr0gAtAMyLKqwx/+5f/Fn47Jf1BqGycV4Gs+z7Nu4I/+wffCrcNnFTGFce+7q26sj3Ah+4Y29Y+YwiVATjN5cFnFDpw5m1wW8mldy9JWRya2arX+uaApcZ25IF6NOnT4e//uu/DqOjo3bokQGzjN5cpRUMu7srCyo1A2bNd999d8h2bdSpTh2e0tJEVPXi7HG4KktD718DWAN45maYk6QE0lnmmF81pkOzNEVVh9AnPODbwEajNAPrwJe0ve7A+WRJ43UtabDLg/T1mod836NPhJ948vvDeoE4SyD+5iA3Y2RxMR9BtstEdLdJCvy41lwmzp2kNX+XlgaWJEBzdvM3v/lN0xRna+TAeWnpL6tNNmvWp6x6da0BUz9nceZsg68Zb/UV2AdnBsyRng0olRCvRdtSxxqd05llSAqz5QUFp2Qin33h6fCftaRhXz3RKOQlFdam/9WPfCrcqbXpMS1v8HCQrXo4ilQ0WUdWpNj/8AzDYUcO5MOQ18gYTANLDqCfeeYZW9LwZi11cGbW/MEPfihs377dq9yTz8DLBneUs69B0lemqNAm2JMGHKetD5UTn09AMYue04n8q0Y0vFKQBlDpHtZ+v/iVp8N/+ePfDpN6aMgzOtaaAeef/dFPhbvXbQ9ro9k2Qh2MAXiWRY7p1yVh/R++S4W6TQ6/gEZiLxpYMgDtSxrFygPQS9G1ljP2qnr9DRXP5b63s06Lc7NuCSjKcFmNvwAaiDoop/eUDkhzDvno2uQr2V4DgBZgfePwIXvlm6WKTTrk8FPf/4Phu973qH081j/Y4HliH3DXuYnhqRefTU60i+oR8w0SRqTdEFiySdenB5HX5B1MA0sCoOMljcGas/C5AeY9e/a01pkHLBKg9YHQcbyBBCUMBhAl9AGr1WSvqQHXP75fZGW3EQ+2V2s9GuddBM+3vO8D4XNffzrcvnNH+Oc/mSxprNNaM+BsM22YogwEofPK9lvz58MrJ3RkqMLDdFYG5QxTaCNrYA1cU4DmjcBXX33VljQAKQeqgVu1AAJiYF7VxzpzZZX0C4EZV5XL6URs8cy5mMvizQirUuWC0E3nUUeY+hW/qk9ez+j873Hti4ZmN2IF+FLPw7fvDZ/9uf9k9DHF/fuEzJCzPoxkMusmTZPt8IVvfC28NXNBSyhpcyK+fhpI3azO+JJ19vy5sHrNxrByZMh3gH4q1+Rp+7DCoqkEcP7Sl75kOzRGRvxRyKIVX7ug1lLGXbXzDMw44KAbMPvA1b+hBUj5rMqxv51jCBwA6RMu1pzHteas5efcbdn58FlZ8Pi8hgan33Fo0v/62hfD/3npy+GSXhUHsIfm0vKQR7nmlviEyau53P1rMoPmde39+/ebbpcyOK9bty48/vjHAiC9UC63xMEI7sHZYI74s8GdjbIosQkuigZM9epHuhKgPasD8jfpqyYAs/36qdHH3n0sY/BiyuHZ8+FXv/CH4fnjb9qhSdCZVZtzZiJOS1L6+ysZscj+hDS5hqWBRQVonzUPq/ILIyex8gScH+8OzjWsuWrcOB2/hpikuWkm53c/1gXA0LhrrwEAmYku54xvEUjTyQbSotmDuEIVncbsmPVmzuX4xok39XXvPwgHdNgSJ9oBzBk4F/IPEnWTMXtSJLe0NojgJu9AGlg0gH799dfDSy+9NFBlFyKzG2YiWzFZ6Lp168PjHxU46/D++shZXjsfkKWpNhpKUyqJnoXBTNjiabgyU5OwqBowm1LH8NlIjovhhgmoEu9oD6olfMya+WDVZ5//i/DHz33ZDk2a1pozaQ7iQ20QRiTZ7symPNL411QDCw/Q6nj2Nr/NB1wjI2hvdX2ziDnjcLvMmpRIiIHz4zVmzjVEe3Pdb8uiBAbdlD4QwM9WLuON6tOWBwL5Ut9ZzbfMpTka4mJqQJ1hoCx/pfqU/jqtpQ5m0Wyts+UOkeO+ww7of9abOTTpt57+fHj27QPh4pqVtvd5MapPfdwO8TlT2uu4GOU3ZbRrYEEB+oRO8XpKDwK7OzcD92vkkEHX5+4uD47du3frDI33dl/WqCeuKxcgywHqB469Fe666WYD52ytslvuFIyHrYNuxTbpNTSQ9g0eM+YrugA8XufmnA362Iw3tWHAGTBk5vza1Inwc7/5K+GkXkRkScPWSGoUOQwW6sGLMNTjhdf3WXhBZuzDqOwNImPBAPrFl14Mr6cPAstBpEDt9tuv0CG53D3lZdi0O8A5+W5gcqZC/AZjvAUwvzanw0g7vUijSpaXlpbPwFQQkP7Lr3813KFjJGsDdHsTGsoS0oDbiZ1sJzvAX33iWHjfbfpqSgrSgB/ADSjq5cHwvA7pP6sdGjfde0c4cvSApY2IBxvK2bu1s4SKwOJYiBCWHFWOtDnlfV7AzMFM00IG1sKj7JaVeuSecbRXrKqIht6HBoYO0DwI3PfNfeEE5zYXXWYh3qvuFxk7x5Nc+it5LQmtUHXuBHxjq9u6dasdqn/zzTdr5rw6XOaL4LJAgJdzQFZoCrPSFg8h0wBR9LvVjj01cM4a1Vasp7jfxkATdHGC2UWtMb588i0bjG18DWFZaIDZM4D3Xn2tm9e7CU8KnN+YPBG+8trfhMmVVwysb9q1Mzz+rp3hKy9+PVyaSb6PGdt68vkI/hYtS8aEUAfpDF3zfHHMw5gydnjw/Mlwy7YdYW5eKF3hxJo5GxIRIQpmPE2gfw0MFaAB56efflqgmXRT3FmZrWR1jVMzYs2A8ppl9SGjUBG+7wZIs2tjlU7Om9WebOzb2mCGri96r9QoSh2DgpcQ7JJVG3h7YonfqZrZ4FCAWXTjlpcG3Drd5FhCeEU34TsE0MxQ+fX0/NHXwitvHwqTeuGQmbQ7Dk/6lgffGw6+dTgcOvqWzWYBUGQkts8kIg3aeCMBh/Eq7CBdAHHj8oolGbIZsY4lC2+dORm27bjJsttSTMrTeNdGA0MD6Hhvc8EmzF4KNuGWFbW6jSNKKwv2yt8u49577w2cQsenilavTj4Ux8yYN/uYJTOLXilw5sKRhisua/jQsMTin8GrWZTYxK9TDfDR1zM6DPq3n/9CGJNNzcu+WFaYtS+btBqFPXFm9KgC9+64NezddWv4v5pNT85N24djHfAZZwlIkwNDw8cpnDEllDp/V+jtwVPnz4bLszNh7Ur9pEN4466pBgYGaGbNzz33XLh4kXedSpzbTElSO2nxDIID9ffs2WNVYOZ8RZ/VmtZ1+eKlwMsznEOdGPy8ZhgaWcRyi29Gak1Ukmhff5nsuJqyiU9fkppMS00DhpORWfsuiWn73GurtsxWEysTLeXHFqAzc/5Wzab3Hz0c3nz7LVubZn2Y2TSsXMlyRxJKpCYLIUm4/t9ZLW0cP3Uy3LnrlnB1RuswjbumGhgIoP2Qo+KMsqxFDkCehildKxeDM7MEvnnIEZFXZvHnbEljpUDZ2qWKXk1nzrn6Kh8z7WK7cjwdIt5+8nNx9m/zgLCDwq6zJL+ZZ5+/Ktzcvf+9WUUgdzq2Ae9qzY8QTQwAADEnSURBVKgf2nV7uGfnreEZzabPXJlOlkTEQN72mTQ5ccWSEmrxr5cj4w/HTp0It+/Y3bphFJmb+KJpoG+A9nOb64DzorWmS0EsY3zkWz8SNm7caJwY5SodZmOzVq0r24xFwLx6fE3gQCQeEnJh47Szra0+BiTHB2SXKmTJZLVLstkbu23jpjCxZp2VFYnN+JdDwKCCximwXNvo/eT2UAXQ8Jk+0gyZblxAIR0yQMxs+s5b3hX+TN833H/8LQNpvgZuIC2e/JShNYuOy0JWzsWJeiB+YWoyXLg4FSZWr01etMkxN5HF1EDPAO0PAhezksMoC3B+9NFHw8YNCTi7TGbOzIQNiEVkeYOLAQYg+7oz/D7ooBO2ywX14ftP2K0Tm8Lm8XW27tiHmCWRxW5yJTWxmaHojgEeh385g7RPmH3ZwuOuItqOTkwvacT14WDruop1x9MQfm19t86PZl/17z/1hXDk/Kn82rQXEvkuOyJVBjnk6R0tc0zctkdPr5MJSiVzk7CgGugJoH1Jo26NzO6wrjLrqKLXFd4DXwbOzJxTa/cZsQGwZs8ZQPPwRgbKxXm+DsY8NHRQjmliyIF4D9UyVlTD0gazaAZeWr1exVxT/lz3xg1QgtSTze4McNJ0W85RrauA/Zo2aAiFOyCzQxNX1BFxVOE6idMznaW6Ms8zIAwn3MRmPnjnfeGqtui9NXnGQDpJHOzvCtk6AH37re+yZY7sJjOY2CZ3HxqoBdBnzpwJfF37+PHj9YqQRWGgGJYZngI+G3ABTrd4yutpw/Rz4FwQDOAmwCuQ9F0b6QNBANtnz6TFAI0YjwPWg7oYpOLwoHKHnd/6rIvQmMdUk/YtD7QOa7vYSe2P375tW7h1t96c7KK6TFYXvi5VujbJajz1L9tySoWsSQlDUr+ssUm02ORiHC52euzdtCOsffd4+MzTXwhXNZoZZz7WyvIk0tv/evHkIT8PC22ZY836ZJmjF2Ht4htKnxroCNB8toczNABnPoTZk1OHOkiTDwOo7GMS3EJgHpKbmJgIH/jAB7I151isAawINitW+Q7GvobnwAsfSx747kjzWbTT+vFpsoOUN9/9fuQtRp5c/bxDRSTIwNakzpy3y+iiPPfSC+G5F543PtI+/IEPhgfuvb/7AULizZWZyr/uvbRR3jb0FDunO60Yh75CyuaXyK51m8I9N98WXn77oM2ivQ9QXE5uKiRHQ06BQHTmypwB9Ia165M+osACH6TGLawGSgEasDp37lw4dOhQeOONNxa2BgskHXB+4oknuko3IE4Nz0HXaMoJeMfgDJ0L/ZC2EM5nPwshexgy1fwWYEYqYIZ8SFvAnv7KM1bMPXfeFR5+6D3Gy5awr734fJhLX8QAVJ598YVw//33G6LbMkAsN60o3RLf5IdR/6UmY+D+lpLQ5/177gqvHz4Y5tNT72gnwFuUj05x7tOF8DhIe5fSnxyTunP7DuOH7mlGaP4sigbaAJp1V5YyAGeWNobmZBGOaW4cQ5OdE7TCvhf44IMP5qhxxAwNsBXRgdbB2WbUMkUHZwdoX/KIATrhjSXfAGEpLwfSajIDfPLSxfCnX/hz26OLFp7VbPmuvXvDurVrw5G33rI9uwx6d9N6GcLsIJWXG/2pgcBufeSZGj+nAVcnAL19gx40axfQ8dmpTJWuOwdp4lwwmJ9KMyBPyEbBrnmJ5rx2c/Cq+dpRvUnjQtI8jbc4GsgB9NTUlAHz4cOHq188GaReqVXYwHPrGkSe8ubFCJw1c3vwgYfyFhiVkecXmx4Q4jBK91nm8CUN9y1RfwBoXNE34jL+4zOsYhPRGho5ee6MvY4MCEPDP3X2TFgrgMaR32Xgj2l7ozvTqPjxAZvGddcAOgQzufQ/8Gr4zs3bwjvH+e53u0OtptpUz0U12y8VEZFlfxTmm4qTFyfDuomtaW5LhaNxi6SBUUYNL2qcOnXKwJltdMyik57qXgt/CFLFWTQE4xt2P6eF3HWXwPlBgXOF82LNuCOgJbsDLlasDXYWd9AmjYs4gO28Rqsoa7HJpXquUQnXSQ3WchYVDEhwOJbXAd/AI/X5ECkuLovX6+FhvXRSM7U3Dx8yBHnwPq1LO68ExXmQUeW87Kr05URHJ+jOHfbMjo4tGyfCimNObfmZbpQnC7eSTckMBxfpPODC5ORkuGnTFsvndOeLRTThhdHA6KXLl8Jb+gnKksaFCxeyh2V1i7uKdfToyOH5VsSW1qOcmD0B5+pljZiXMGDroBv7pBFnSYPljezhofjJw+Vb8uAd1LnMxFe9UnUW1VKkU0d3rZBT6vvkHcaAo75+UVe7JBv5k/plhoMWt4tZ9nkBwB/+0efCpbmZpO2iPcjDQ2RYrvZ8KTnzKONGcnF7CaMn9LVz6/ZMZ0V9wBfnK0u3zGJyvWNj9N2cxsLKFXqA0ElAUWATH4oGRve9+k3bqcGODXPeOzXFRzhRM4fYHG3IEYdrSWivYBGc2znaBQOIOAfIBPBY3JAdajbiSxvQY17P4wDpPvReXTd7J72sLXG+qnCdurjsWIbTcvljhigh5mWmVXSbN2820rFjx6wdxi9Z+Dt0pCZi3zxyyMDZl0a+roeHD2gW7WCQmQfMcYEmOf+nopp5puUUc32o4fzqsJsaSoh05Zv9OjU7YjcdM6b5Kvm8vjRwafqyljmmwtZ1E3Zzzfqjk8AmbWgaGD1w4EDfwswW+u4xcmNLkZV1rUkCoPE07BOf+EQul0vLEeNIOoVLbixw68IgvR6W3gJlsjoI+2zaxTnd4/348YwyqUcyvhLdUrjVMBOdaE1Rv8GkKUbv8W5JHn8VOSsA0XEkXaN3kqVllXCqliq0s6XofP2Z1+ZxZioSgM8aNG0/qF9ungbAzE5reU0+5VhZlpqGo3Jzekt5bmQPXXHo14a16wSqk+EqW2PMRlBaokn07nqLdYu+M5eG8ZAxyzKHZtET2g89tkKPrHq0sUxuE+hLA6Nx3/QqIVmm6LYKXS01MZIea5BaGIO+uFPDja77PcM5VTcVn7e5pD7MmgFgLg9Xt6S/FG85TbIwfkp0mtc0S6coEYtthM9n+r3UxuuQiu2eVRm8TjEzD5irHLuCwAraRL3Jf9NNNxm7vfwEXTGuLVu2lMo35vgPFSdD6kXRhHgD/MVW0vu0BVaNjIaN+uDxO5fOawas5TnpgAkQunFnIO2R1E/VaLFYj4xvDu6f0g4dgHrVKj2ygjkWWJDVRIergVFfC+5PrACsiBQ9CDJjSAG3h2x2kNHHPvYxO8e5l3y98jrgDWOmXFU225nsktUzWWUWiUp84sogc1BjQLIUwACxn7MIzUYokd7dYow3ysC5n8TK/46PrjK+bmZlsqQHd321I61QJMbFXRe+tZnKp+3giNz1+vBEeCdtUUovNqaCnLApMdOHAnNa72ML5bR2dKwZ05nponXMXyysiQ+kAX6z9C3Ac/Y7h2ZZARm9dDhP/z/84Q/nwDnO33lgx5x9N3t4GVUdmynjp1ItHoWzBNHg8fuZz7QXtEVeqbRci6pAyrSbRpye1k+eOfoJZ19zl2/1jPh379wVjvKld9JE93bt3rXL4pYQ8Vu8y59edWE67DVTlzosdrJXn7aMaIcRM+gRHVegt8Az5zwZoZeAJgCX9RbxRW0m2KDT7Ua12u3dMpDcXupwA/Pm9kEvdT0YOH9LN3DOVpMrmlMwK7e2Cu6FJFM0B9PwQJKLmhnwyb/KUx+5bKYsZpssp9W3JcYh1J3ZuzurjyLm6w9FEQY8OdLyd3/vMxa+W3vN3//ge4K9GAiDHOuUDrLE+YSYO29TgtKJTNLeeecdZzEfvi2bNmc6SJua4ylGrPg6jMWMaTytfkXq0idn9Vc/YkGsQessxtYr9zQhY6rXnqJO5/Ta95QeFM7pSNxRnRfdq7x6pTZcZRq4bgA6mzlrhuDOxyUD253RYqTwhCXoJ3VN1rltvVvrGdBoDrjpPlWnjRYnIscSiLc/ofT5tyCEMkyfXhHFof3uZz8TzumlBVT7rF7bHhHxfQJpbhrQ2MtsWwnIr8udg7DRlAdevgMZu7i76GfnjXnKwtQLZvPLGGrQ4rJrsC9ZFnTGA18AepW2h86yFalPhyx0apdkzsvY2Mkxo62QtgTlDH3Kb7LV18B1AdAZOPOzeZDRWF8vi8NJW0Da9DJghMYAsMVn+cS5cJ6WxJKoBlDGQr5OToydWOI0K1IEDuQBhC9oG908kydoSszKrCjP1kKVZnzK476zI4clDgdIT9/KQ8K07dC6OcsHk+T16ly+16HX/NeMXxWnucUm0y88KFwvkJ6a0stBzHYHcpSgZyMygIvabsdr3+vHeTO0WPJAhTSZO2hgyQM04Pzkk092aML1ncSsh5+kI/IZTlwGOukYwIuHGfwOktZyrXXEQOMPNi2t+Ccd2JD9wWfRt7Q0H2X7UFy3YX04ywyavCJamfgKGA16ms88Rcj79jGBMGkuSOFdWmfG+Q4Oz8cOjrrO89TlX9Z8qTJYDluzcjRs0gl070wmb28O2u5kF8jVMK2XVSYvXQqb123UTF27OQYV3OSvpYElC9Bso2Mg33fffbUacj0yYeTzczp3mrOn5V/Vkx0mj4w31qDxGXS+nGH0kcKDVdvWEQGgALyTQ0aZ65wryRHnnUkPO6I4XuWO0+DevGmTzbTtoweRcGuD4pyWmAG9+An7fumktOq/xbJMfJFYnT1LIR/l2i+XjHp9BewGm7Z9pRqzYeVY2LVxS9j/zlHtwFDbTDnVbapSW6yTqxLC+dBv6HX823bcnBhptcgmZYgaWHIAzQxwfHw87N69O9xxxx3ZYTtDbPPSE8VA8lqlg8oGSEb0RAFKjNYiMwAdZBhs/e6oaZXQCiXPD5NK8EvGZ9BwTPO1mRarNYB64MjnVT/NiYhOT5LDNh3Yz5KJO68/P81xObnOlPou18lZPCrT07r5lEP+TuV1k3HN09PKW1tkG7wStGXdBvtVZm3r1LhMeZ1bYSJkaPTT2Qvnw9b1G5Mu7SS7s8gmtaYGlhRAA85r1qwJt9xyS7jttttyW+lqtue6Y+O8j5FRfRCAjwKo9r7EwXov4yfbxaFwMlCSJkLHxWNs2OMF8LfpuwRv0MPZ+KZhr3YrHTCOwdYqpT/xckWxXoD9G2++6awml6K4IXdzyILXfQLEuXDxzC+hdP6LHK7r0WU3RFXe28+hSe/aqS9yv5C0yHXVa/tcnuvG9cQRpJtTgHaeXmU3/PU1sMgA3b4FzjsZcGbgvutdtxlA+2vCZU3xPGVp1xMNo9fCRpjThc/WOSbIDDz2seLHAE3bWALBkTfTA5EFcMjnhlHmKNLqkFUiz0XaEX3iKnZeTT6mcE4zMY/DA7A6uMb0OL8X5en43ESSmX7K6UxxxopwLKeCZUmR46bF4EwlPQ4PNrNShoLvZ5yUNcR+6aC/ssQSGmWcPnc23MoNoG6mEjkNqb4GFhWgMwNLrcnjbLDfsGGDZs23h5v1rbrVq9dUWo3nyZp4HRsKapgV5M6kly8N0CR70UABANLbDN2bC80uEMoZRBumYxAm7/Xlz2+mjLLDkbxs2hUDA9XzejtP8WMQ8Nxyc+f1TWRksgjImVyFXX5KThK7/PU8qTl24V4CyapwsX20AZr71JIbHUePXr6UPChMH1OQlHOWD5lFoXDFAtNckFjiMHleaJrWeAujgZ4AmlmuP/XvuzoaDbE9AM6bJjaFPXv2hJ16u2xsbLxStOfzmVYl43WSgMGzFerq6Mowz8WyhhEFcD51VdzbTRJggu8zGPpkwZwKmp+NKpAWRPlUyoBNEa9TXA8G8dlTpzOS5+GEO8IxQNMCXxIhzeRmOfMBTzd5aVJcvtF7VEksK1/a0otZ01ThrIlUPm0ANC70sVlj6u2LAuiMsbwtxm/5UyHlbEaFgy13R94+Gvbs2N2Bs0kalgZyAO2DvQyEPW1YBbscBuadd9xph+eM6hyGG8kxkHiNdmp2OqzR1iW+igHwMhDmBNCkE3fQdiDCh5YMrmE+Fky0j1zcqOqzaXS1lcVD2xf3vZwk6C9rkT6TYsDGjvqzLe/o0aPGQ9zqLsETWzbb0gc0HHQazA4Owsg0mqW2/zFZaT7ny+Sn9PZc9Shep3rc14YLdeG8/1nzcprTsZ310v+KfLdYvrY/3OB5qcWElGsAPGD889YrL62cPn823N4AdJsqF4Iw6sqPhdMZ0B2oY3D2NPjpU7o0PycmpdrFxgTXPffcG7Zt3ZadvwytyAOtnus/Zz35w+diLZZfESvHrxggGkCrGVd0AUA+U/aSodkwYrE6ckZnjWRAlw18yeGB09nLp6wOR44dzYCTspQUDqVrzLzEAC12PDg8yh7otL6ZLya+voKL86zVq+F8uxAxfkMypsIfl+NAToud5n4hS0/RuE49ZVwk5rh/POz68i6Y5eau+ni8vE0J6KbWpLHe/UPINhWQ0DMXzmkCwQ7pxEb8x16iAi91kRSyzIvJZtAxCNNmB2cPx+mEs/N/zRLqdUrMxVkNH/3o42HNuE7IykwpDlFyiSuxtlhubtSXZF9KJHTMm3McbjM9P6dljREbWNDnCQmEufn5mc3QYwz2dtt5GvTDgM7l+YAHhOdkIdwkVq1bk9wY0jIAyEkdoMOum5P69mCxeLqJE9AMSAv1On9eDwjTwiyfwhsmNiYzcnjTtEI2i5KPPO7HQE2+Yj3KZFTRBslbJXOYdFOL/nj/0F5oDtReFl9R55mOu/Z2OSXxAV5CPsYZ24S5riqM3Xl8HiAfGw0Hjh8Jt+/S86I52QeGYk61MQOlVo0bhgYygEaYd5B3CH5Mtw4TLQGKVlqv3ZGA80f1MJDjC1u5PZQZoJVe9sc5EwMdaFSWiV8smm3ZYAeH/vECCoZubwYKoBkkUjHgrJDVyPvD+8er6XSP9+tbKSoTn7LpYU3ubWfJ2JrV1lXeN6QZSIo56sKsaNKZRRfTAOKDBw9mfARMlnzAtpuzMsWE7+DvNCrussrk1BBv2erylZWxkLR0OKZGn5REe2UiScPTwl2P4/oowvQVfQChzNGRllGJJkRRthHJ+S9ii5OGIylVDBOCab1VdVmTinGdb9dyqaAWoQkNqIFYu5koB2onxHHAAPDwGTT7eHtxOXDuJeMy483s/UoyW5FGtRdaIK3PDBngpqORwVDUP6pwUEaOf5l8UBUxvHxJxcalEZIfsDEIGnirYD6HtHqtdtwUHLzPPPNMBs4mK+UhbC+vFPJs3b7NcKJAzkXJi2ycy4zrZelJculf0tPsWbrFXVhJesa4hANW/ahh3s5N2slx/syJTGdlTbBs/DF7c0X4jFn6Uloy1o1Jek/sc3Z2Nkzr+Yk+41ImtqENSQOj8eAvyozT4jB8DhD4xbSiHI/7sobNnJ0o34wkjfsMLUqOgjFnRL7Ogt4K2sryBvpjHZoL5LFBQCB1Of0qs+ueZJPV2z3Sxbb5NqlCpor2OibLLDrjQUsZVa5V0xbHBU63kyumPf/88y2mNOTfLizjb2MuEMxeqGxakNU7q3yBOeaJkjL2ivSIdUkFM91mDUiqx03W90GTlPEVah9nw8Z8Qo2/UrNp/ISGhJYUABuAvnjxYri6qXWsbEF8Ex2CBuz25wAQD3wPJx0Xd2WrVM/XolSH2AXwnvc8HNZULGuQ0waboKG8NJddSG3ZjTMsad9rbyAo6x/RVzAA6VHeKNQFHd27/mlMUc+5tCG21uoUyYvjHsYvOgbroG6Vfo7XdT6Ldv6SKnlST773TU+ZlgBzsf3oh4fMu7fdFA6dPVFZQ+yoaFswO819aLHNAdCcsWIAPcF0otuYRULj+tFAbgbtneA+AuNO8jg0/+p1Mb2sEoDzI488gjT1dGsYeCge9EaLeMrkXe80Bzs7qD8FZ46JtN0c0hH69yUk9NtJx67DYenE6+byrPwUAXjTc+pC6wwN5xnUZwbN+Sv9umHroN96LHa+IjB7+Qwfron1G9JJj6e0+z7W3caIc3m8mIMZNbK5KV/S6XYcojSqLaLM2g2mldbRVVW6Y6YbN9EA2jsFNcRhOok4zgYqvZOGARdPM2LFnzvvvDM89NBDFak3OFmqHZUeV2n3xihALR+AtCUOHhamA6VqsLj2uo0J56vjF2V5HxfpyHr22WcD4NrprcI6ZW7cuLEOm/EU6xHf3GsLWSaM6KJ0LpOCIABdx7md4Xt/k6897MCtJyb6ysrlGZ0RrVMNx1brh7ieTCbPL4o9lK+BQUhav3xKEyvTQG6Fv9hBxQzF9G7Ace+99y7r40KL+ukljhmbKXMDZDeHkGZFurfZfMAZgQbSnSV364dOueMB7mDXeYjlpeXeCCwMPGQjq0DOC1CM0+36cf3Ut59ylmoe9Oo6yPUjFU5Myr5ROH1Zv3rUEWX9YA+howbGY9wnYdDcxgBY1qfZN82XvtkDv37N2ujMlrJSWgVYnTGKzOUi5ZXMeG+8QA6gab53hIeJO807D7+ba8C5m4aSdNMl+hQ484V0BpzruZ6EAbkoz8dIh27FBni460scVs80H15ZVudx8VU1ndJ2vI3Rvt0qviL9jTfesM9nIT8+XItyl7Pz/or17rr2dpPG/hvA8/TlKW3kbFeKj2NSHKjd9vBZZvOlNuQ6FhiP7PWKzjE/evxY2L5ZH1qwCsDV3bVq4i3AT1wzw3ZNJH4G0A7CkD3sPjTvODqMsDtfi/Y4fgPOsTYWNmymHfVHL6XRi3Efd8oLH+vE+N7/MSi0hlhLisnXHweUVspgoZN6E/Eb3/hGOHtaZ03LbdEyy4c+9KEcSA9WwtLOXdR7azTm6w0fAD2iI1HmZCNX2ZkRsbTlS+2I/mWcx30dZUtsRoJ4mYpvFcb70WO+0rAKbdWBGrRipfw3OHGlDzb0QIdwAbrsKMB3APZOKwK068/lNODsGqnn2yCAVYPHHINIfeDO+ySmua6NlvZZzFcn7PK7+V4ufnF7ZLe8ddP9w7J1+Pft2xeeeuqp3GFLLLN89atfzbJzQ6h7ZZmWYQAr2rBaAC0QbFlUvYZiY7GduR2Qm7DpV+E5PSQ8dfp0/ZtwrxWpV91ly2VncXjrUHzcEdC9o9x3XuIx/5i2ST3xxBOaxXTfF9n0kWtR+kXHqUJ8PuHgYlykucIYGMxy8Mmnfz38sjRxxT9edpFejNPXADS+z66KPP3GDxw4oC2Y7+mY3WfN8Zp3nKGKHvOUheu2vyzvtaZhAx2dGJhBj2uH0GUtR9R19LHZWZrBx3mRhhHy8uspveq/c2KL2WSnMtyMO/E0aXkNZEscsfJjFuh+QffO8tk17+pzElkGzmY11V3RltLVyuLaLL8wIItjDVA/WMw3fadNJdymsyiNYFV6ylbq0Y/mkO/hUs4W0Zc4WpThhV544YVSkO4GzF6D+GUXp3Xzl5Ppld1o6OH1OludXUIrtTG6DkSX2YLTHAeIE7aJgmz25BnNoG+/0yYaTBgaNzwNZDPoWPneIRQD3Zc1oAPMo3q5gstAWrTHPvJYWKs7dYI11XDhKU0ntjrQde0+Sx0rNC2xASA26J7mfUTuIr0lsV7IZaqgLAODvKpvKJsZtC95ZZmGFGAWzSz4nnvusS/rAMyc2VF3ZswadC+u1Wrp2g2zFwHXAS99uVaHkY2P6Bjf2Utda+w2taIw5p3u9pfFJRE9sswBSO/QLJrZQpUNda1Aw9CmAZtBu+JJJRy7OI3Bydo0M2Yuwt+iF1AMnONMTbi2BlgdRK8YfQZ+MnLC6N4HgwskPojz3O6rABNHr2e0kgKoCzNor2sJy8AkwJgzPHpxzJwf6fEBYWzhSwWc4zr10v5OfUbaiARv0OTp+OULiuVLwZbi8Z7ZGjah/s7sT7aI84kaaZmtymqQOnnpYti+SScz5ouwfM2f/jWQLXG4iLjDnBZ35Er9XBrRmhaH6zOLtjXnQqd0MhqXWe73n7Nc3tKn2qBQNf1IUWYfpm+qroFCGOeDxSKFPwX1F1Lbo5TRax7KB6C5Kdd11JxyFmpGxUdm9+7dG9asXdtze2hD/IthqQA19arrfLRU6Zd0zuSwfcpnvTdKpJvRJevJ2CF9bfrgwbXidvStskFzu4Fmtmm8K2wGfdvuW9I3CkvKaEh9acAA2kAiAoIySckdU+tY2py+esNEePzxxxM277E0E2bQ0ZWMhFyekvSO8q7zRLshokPtK2Uu4oPNdeK+jwzjF3sOuKM4dOepVA1CfRCmTFk5lZmSWX0x2etbpBOnK62ossQBaNwoAGd2DPXrrG7Se6YrwnWU0G+BC5APs9Fvr0rJpDCjvWXHrvDCkQN8YJJuT5xnS32ehRCc13JF4mB05oSSQESSIbE/pWNveg41MzcTzk2eD9s2bNKJjMlRuamgxhtAAxlAuwwf+B4v+ls2b22BcyEx6/N8vxa4iDpnGurKXyJiGZEACX4+MnvhX9GR7sAbh6v6ynldTgZCTqjwO4EtWerKcfHIc5B22qA+4Pzoo48Gvgw+iNl4W3M6bFf9oNWtzO/lVzL0kFBZbSmIxYnVq8bMqqw/kFuWQTQ7jD9XbqLhVr9Hv+hSPiYVvGA1q7Ohz01eCFs3bioVnxPbRGprIHdYUrdcd999d3jg/ge6sTXp/WhAPycZCLxMwGwaFwOtpUVAHafFINMaTK1KxLxOvd5mi9Sb9eaPfexj3gQDgkFAGkGuu2HfSLJKlgQMnCOQjIIl3J1JZf0d56CsMZ3ZnBxmlKRU6kwVkYllLgoaraqe6HBOr36fOX8uXNl1i/Zdy4nZ2plJawL9aKBtDbpKCOD87ne/u/irx9jjjuvcKTFnVUk3IB1QxvFzERBO48UBksXhS3LYX/t5KlqZywawkh2MkkwtCZ37rEzq4tPuu+++0iWN8lbXq59rYLFvVnYzSAv3+vfbB96GshbHsnds225Hj3IMaUcXpefsRZkA78Ty8r/zqAMLJHzA4aI+g7ZhXGeHp5OMjmU1iV01UAugM3AuERf1Z3rHzHdee5Y4h1I7WVh75uVHkToA0eShi56O27yw1UwGiYOsDQQAvAKMPVecx0GfNJeT8SlQBIZC7zjrNfPjJY2qShTbUMXn9BiQ0UkCMElqnOb8w/SpKzqmTMLmUwABubr6T9kTWV0ykczJditP6+sqWvPg5ZLB2umle43ZY63PYOn51Hktc2xcs07r0lrLVsG99g0SG9fSQLJ/phVvC9UBZzO62MDo/cpLRcDrV1uJNyYhBl0DDYAjulwrOfBFjSWADQ3nfizbEvQHmtMZwH55+lLwWdLw9eaq+vQDAJ6HNruLw05bDD8u18LqOh9PVT5jJ5cv6e7K6iJnvWa1PDCM81VmqEygoPiCUXZqFU12e5zVB4GvaLljsBtAZQVuuISOM+iHH3447Nmz54ZTyqI2GHvHAar678sbDsQMKAdS4/M/KTBbWgrIVXxk8YFZyuMyl5DPLo2q17/Bgyrn7axKz+ioW8zGXxLO+IYYMBxL5ZWG6X+l12kDXZ77IaV4laOsrRObDKDn4KtTQJkw5UtNzVKLYngblk+dzeis6LEVyRfqizxlYhtatQYqAboB52qlDSUlHShmwGyx028ZG3C+dqcES4tHhIfllwJzmp6BcGHQ2ozcZkCU1d/Q8T2xQ9FBhZBOttcJnCvEVZJNltb70YSrakFnfvRpWpCrn3gWTmtap2eszvrjv5IqG6kEeO3QJK1tCDfNWf4kmPylXhC7uYiHslvRZCluem7WdnPcpJdW9IphchN05XaT3aS3aaANoDlX933ve1/Yvn17G3NDGK4GfLAm2+uSPa0YfBV4QrdBIb+Kx2qYArW/dOC17pjHmSg/HVBFsDp3Tk/pdehOTHfeKHsu2C09ZmZJ473vfa9tocsQM2YoCcd1IblXLPCPJDjS9FLfkurUJ0UVzYKu95pSPJ/7Vdlok79ReHn2YsImmoFrirDdZFTJzugqBBlzso/Jqamwef3GMKaX2pqHhZmG+grkAJrPU/G0nNe4G7ewGnAgdkBIfD0kZCodjZYYlG225GnpLNpnUK1Xb5N6J7zxDKe8PUWA8/rAbWFV1IH9vNYX5/QgaCEc4PzYY4/19Kai191V0mu96ANk0M643b3KGRY/5yr341wPcd64PYgd0eyZh3cnHaCdGeX1Wa6LyHzJuaL9/JwRPaOZ9Ng48NJv72RSb+jAKGDMbJk1v2bWvPi2APgZAAISFTNkp3vtjD+NeDieWXvY+R3EPd6PDzAzgx6GrGL5DzzwgL2yXaR3ijsoMfw93Im/NA2dp/ljQCvlHTLR6xzDVxweuLgUdP3mwwx60zp9RPZc9Ve+By9TDwpVLudyXJqZDut0kl5ajYFF36gCRr/jO76z5xlzo/TBzcUHow9UTrGDxkNCfH4w5sAXOksXAnH7PJF8dxlfmo9RAS0D05Q3i4vP87iMzG+JNZKXyffnzi4AQBfBOdNHVqHqgOlJ9XW/mrM9xQCZtko3WbidbVEo3mbaMQxnXZgKMzuSUGbQt+zcFZ5/60AbaA6n3EQKfy/rQ7J88fsKNwT7N4xW3ZgyRsdGx3r6FVIYvz3lvTFVXN1qBiZgyx5SYBnj5mqBZwLSmemLPwFMZKZpLHUQlWvlg4/drgktA2ZntJREqgWjP2UzSbLx5e7p6emkfhF/v0HaDjjfpcOO4prE4W6ykQF/7HfL4+muCvRO2OOevtC+19vL6aXdnqfM93Z4m2KfV77ZV+t9jN6G7iST5xSsQ89tmgujOuqUcrzMoZe3zAXm1qC7tdX7s1F2N011SZciGZCAM7sibN+owiNaf05mHK5pgKM1EwZouTIg9lEt39agleYuA2WRPJzlc6aC76XG/eun1527cD7MavsUzkuBvzjI47zGXPLH8+zRsprLcjZP83iZH+ex7+GlFYdeJ7/JTHVFVm+366mszIWgxe2Iw4OUZe2RMPra22YPoUUb0emT63T06OWZqfp6qlWZtPamSB2TqzysQ0/PzITxtasacK6lw3KmngC6XERD7UUDqSkbKlwBJDTTnb/Cw0G9jaUDE+xNQrd3liayDAqK30BEtCLYrtDDGZzTY7DJwpGs0jojN0ogvHp0xJ7Ms7xh5wGL6CBcKi4WEMkqBt+t2TNgymHv7pBXF2C9bPjjfEavUYerft5JWjhZMj15hRbQt3rqj/lDLMfbYT5txMbStk7PXg3r1q0LZwTQWAtlu/6GWAWTaa9969XvjTU+gTfMspebrNEattxDm4crrYeCrytWH5QsalxNvxU3wqHoAqt4N0YMtoQdQPA9jYbH4Tju/K6cOF7MY/n4o8p5LwLEY4rY+rMOwrG1b1icAf6i88YV6YX49h032bIJ7LG8btmd1/nieBwuFFcapRlleihlXiCit2MY4r1bzJZoW9qT0G3LpQLWZgp15rjgHisTyzcxaQcgZla2fEGz6B06/bJx/Wug9xm0j4KozFxfl6RHrE0w1QBGzHUlnUH6CyDJD8SWmgCQGFhJ8biDi/utXOUhz0dqVR5A2fuT8PkLF+wkNL7czITeKl0u3vLR/T7DrmAL42uST2cB+Mm/Fkijk45O8uHJ+IrxjpkL7SavNaqVqUovLY7hhlSFzHXTW8bYJWC/zMRD02gP4MyMmeWgjZzJceodm1jTV67HuB5dxLcnp2M+kSGJeqBN3x5XObu2bg8T+rK4FUhOL7BdSkMp0cBof0bR6k4LNUovUW13EoCJ6vDnNZNm9szh5zFIoF8HVvczycqHgz/OA62NF2Ls0rwxyXsVmyCMz77sU/reHM5KcyajFP6k+Yr36Lhu1Mu+Ds4vBh5kItQKS+UXRBajsMfA4umAkdXPCRV+N56uequQOwjZVdqtbrXLkEB0bvIU5uafzXZFzMZ8WiC6698lmfMiEruenp210+1Y5uCFoKzc/gu74XL2PoO+4VS0MA12ILCfnmkRhB3M3CfJw4wn8nk8zWYeeWOXjj0jeVll+eI8hA2cJcqlAYbMovFJQ66nFfMaMMcFFxgon7qsXqP9sSMCaK2929kjEmhyqwSncly0sUW8BDvVq1ANi7pOXCZEp5XxLxTN6z5M+a5n7+9Yt7t37QqvHtyfgKUKX4jys7ZI+JSOH+WsaFtLjZWdMTWBThroEaDpzsYNQwMMHh8cAB+zZ6OlQOvhGDRsXqJM0HzwuU+d4rCjqOXvodso3mc6VhWV5V/WjkG6TAfWnih/zOPtgeZLHDaDhkAeXT5+3Sep6JyPstzZTcUjNX0rIyqTbJ3KrSm2LzbaMuyy3RZMTy5cEQ7u5xuFZ6anMvvrq9LKlJNdIoRiz2r3z06dRb1qdFw3eVH03/KV8Dekdg3oxtarugr89ELjetaAaVFow66NlfQCYV0xkBHOAbTAsuh8IDq9GI/zO0+lXxg81HFudi7MaP9zvy5uj8tgiQNE9jSA3y4x0MKChXk2Syim282kMkMra1mIbEV9lfEtBK2tJ9HBsAvCXlKFYQeAswG0lhzOCqCH5Tqpn/3QU3ppZf1G9bmj89AbOqyWLD05ozYyll69lnWN3KABF564GzAD1BFouQJWsC6twcXl4SxN/LErBRsGPgO1jhOvAV7ESwmcwYErphmx5h8HY34pcAg/zmi0jzoq7r4l1vxTUEHXXLGOaBsTFHx3cbrThu1bb6Rtdtk1e8jZa/tx23hIOKKLB4XhzDu1ZXRijOUX+ejP2Suz9qUV1sHtJZkiUxPvqIEelzg6ymoSa2jADRqwS4A5AQnCXCCV+aks4IPBy+XhrBgRY0DJQ03GZXlbsc6hIuBNnr8wEDAXS6O+a7QGrbtGMSkDyvaUNlYjoEvTZ90M5IrKJVuqclLM1b6ZeYY+/VyVk27vqZ+6FYue0U3SRtOSxQnZlatAN2m9pwPO6JpdMhemLoS5LdtD8h5j77Ju5BwNQF+D3veZaAIGGkgy5iys+mDbmZORZ/E47AzQEIBTOHbQkZvljxNrhk9re90wHXViBk29bHknnkFTkCqbb0V16dYuMXvzqznbUxJ9J3TXT0xrzzE8SrF93m39tKOsVi4fP7MBhKMr0XbrTI6XD+0vyzp0Gs9NzukXGN8qHOdsDn95ZuglLU+BDUAvgX51YMCYGVC8sYdfdM5XpBMv8sPL5QO0LE8dmp9gV5RfJ2+Rh/qMjWkeJVDOOYAjbS5g1d7yHHcu0gtvLmMaGTR/mcxuNMoEPN1ldYiJntjFr+oX02MKykWFsqxmDwov60Ghjmzuo9gutUplqmHI5ogAXv3muNMRVSZrb1cpDUMD0NfYBgx0HZ1UF39bzwdeDLLGK54YdONwWVOqwL6Mt4x2QVvshuWoPw8IOXMkdgZYjGQFeh28xt8HwuRgIi3UdR7XbUHDfdS7WJ/EfvLUVJUtYkSgqaM6SH+dPsxx+qL6lu2OC+Qoloszos/rsK3t+srKiA5Palx9DTQAXV9Xi8cpwMawcbHv4ZhuTB3+kMdBvoytEyBygt3FixfbZudlcqpogJ5f3CzGNYP2uN9wPC91idvo9Crf6q4MndpQlRd6L2V1kjNo2mLXnxk0X04yuxi08jXy84DQDk/SIf7jozo8qUaehiXRQAPQ19gSfNZmvizX427FxG0g6fVZR5Qsntbd87jvTTK+aHbu9MzvglBT2iIFqLYtSWQCeg+wxOFnRZCb9Xh7oESkD7AdZLCTl18srlfXOVVZFJe2V96COPofR/95Gf78g1Pt+CVj5ygNosQuNbedOSr88uy0vbTCtxH1FNxsup/+7lLcsktuAHoJdGkRWD2OH4NsHHeeuPpO84Hp/GU8GS0dxFk8Cpw6dap1w4jo/QapFw8IqRdAAS5YXUGPfkHCkafHSvlNwerQY97rnl39sF6n2rFbqE/19aQCXlDhS98XLk6GbRv1dfGV2t2rOtjcIbWDTOBiVCgrbOkHFm4Baum3/ZrX0AG1U0Xq8PSS38G7Ux5PY//zoOW7LHxkOUA7vV9c9vzD8Be9DoDQMIGoizzv86yd4l8zvtrWooehv24yqN4VnQhyfkoffdAyh98cs3xef/zG5TTQAHROHTdGhAHrV6cWnz17tlNy7TQvC4BmicNdGfjHY7XOeLWf0EKeXn2vw7X0M8AcoBK9yoCfa1X6oHCAojtm9XJg8r7hXI7L+lahnWLYa8U7lrZ8ExuAvhZ9Gxunwg5E7vdbJQfCfvPH+XhA2K/zAUl+6hS74gw6Tss4o9Gd0WLGIYcXo4whV7kncW4X7rPwzPozW+1iU+xJaI/MvMXIxxlY5uDwpPzNmR6ounosaJmxNwB9DTrUACEF5jhMVSwe1akIcBh23rgj5ijog7GYP2LpGOQBId+WG8QB1Li4Lnx2qdjGhKv6L/xVV3WuzimxvM6cC5c6SB065c1At+SXEmlcfOUbgLYv+CxAE+P6eXh2fi6cOnsmXBXqsC7NP+tZeyChcJtPxeC5cV3zkPAa9T1mx0BJTXSoM5l+QTlWBQ8Ie3XFoWTt0x/GnYM0MrMbDAyps7yK52SQ1xnKfOSK3pGnJF9WRq8ZS2T1RSqW22M76tSfIlw3xs8vGZ7K4SmNF0Y26c2++FiBvtrSIZPfoJ2FKpy9oC/z6MQmPvM2ktbH09t9al5UVjvXcqY0M+hl1LsxCA7aLD8gaVA5vdSJ4Vh0ZbQyHvjqXsX8SyU+7Ppn0AYyIlxLG/blHsVXzM2HiXXrF2wGXaZTljmu6Dp+8kT7g8KyDA3NDphq1NBooE0D/cyg24REBJ/VT0xMRNTyoANVeWpEBYEGuSJR1zTYbxtqVBrR5gDpyDEzW72q9cA2SlqQoPWpKgNIc0Z0vjYLUuSyEPr/ATk059AHbF3uAAAAAElFTkSuQmCC;" vertex="1" parent="Dlzo6lsR4_II9Ef_QFj0-3">
          <mxGeometry x="355" y="20" width="130" height="93.89" as="geometry" />
        </mxCell>
        <mxCell id="Dlzo6lsR4_II9Ef_QFj0-16" value="Sondage Wooclap de début de cours" style="text;html=1;align=center;verticalAlign=middle;whiteSpace=wrap;rounded=0;" vertex="1" parent="Dlzo6lsR4_II9Ef_QFj0-3">
          <mxGeometry x="355" y="113.89" width="125" height="26.11" as="geometry" />
        </mxCell>
        <mxCell id="Dlzo6lsR4_II9Ef_QFj0-9" value="Contenus" style="swimlane;horizontal=0;whiteSpace=wrap;html=1;perimeterSpacing=1;" vertex="1" parent="1">
          <mxGeometry x="50" y="500" width="1410" height="190" as="geometry" />
        </mxCell>
        <mxCell id="Dlzo6lsR4_II9Ef_QFj0-10" style="edgeStyle=orthogonalEdgeStyle;rounded=0;orthogonalLoop=1;jettySize=auto;html=1;exitX=0;exitY=1;exitDx=0;exitDy=0;entryX=0.5;entryY=0;entryDx=0;entryDy=0;" edge="1" parent="1" source="QrdZ3zOz95iLeTfScC8g-67" target="Dlzo6lsR4_II9Ef_QFj0-14">
          <mxGeometry relative="1" as="geometry">
            <mxPoint x="470" y="750" as="targetPoint" />
          </mxGeometry>
        </mxCell>
      </root>
    </mxGraphModel>
  </diagram>
</mxfile>
